<svg class="main-svg" xmlns="http://www.w3.org/2000/svg" xmlns:xlink="http://www.w3.org/1999/xlink" width="900" height="450" style="" viewBox="0 0 900 450"><rect x="0" y="0" width="900" height="450" style="fill: rgb(255, 255, 255); fill-opacity: 1;"/><defs id="defs-1084c2"><g class="clips"><clipPath id="clip1084c2xyplot" class="plotclip"><rect width="860" height="390"/></clipPath><clipPath class="axesclip" id="clip1084c2x"><rect x="20" y="0" width="860" height="450"/></clipPath><clipPath class="axesclip" id="clip1084c2y"><rect x="0" y="40" width="900" height="390"/></clipPath><clipPath class="axesclip" id="clip1084c2xy"><rect x="20" y="40" width="860" height="390"/></clipPath></g><g class="gradients"/></defs><g class="bglayer"/><g class="layer-below"><g class="imagelayer"/><g class="shapelayer"/></g><g class="cartesianlayer"><g class="subplot xy"><g class="layer-subplot"><g class="shapelayer"/><g class="imagelayer"/></g><g class="gridlayer"><g class="x"/><g class="y"/></g><g class="zerolinelayer"/><path class="xlines-below"/><path class="ylines-below"/><g class="overlines-below"/><g class="xaxislayer-below"/><g class="yaxislayer-below"/><g class="overaxes-below"/><g class="plot" transform="translate(20, 40)" clip-path="url('#clip1084c2xyplot')"><g class="scatterlayer mlayer"><g class="trace scatter tracebc1def" style="stroke-miterlimit: 2; opacity: 1;"><g class="fills"/><g class="errorbars"/><g class="lines"><path class="js-line" d="M454.19,351.08L462.7,353.94L465.07,358.02L459.24,357.37L458.39,353.5L455.24,352.67L454.19,351.08" style="vector-effect: non-scaling-stroke; fill: none; stroke: rgb(240, 240, 240); stroke-opacity: 1; stroke-width: 1px; opacity: 1;"/><path class="js-line" d="M453.97,369.45L455.3,369.54L463.28,378.18L460.46,378.98L457.76,376.86L453.97,369.45" style="vector-effect: non-scaling-stroke; fill: none; stroke: rgb(240, 240, 240); stroke-opacity: 1; stroke-width: 1px; opacity: 1;"/><path class="js-line" d="M437.89,351.61L438.68,350.63L437.89,351.61" style="vector-effect: non-scaling-stroke; fill: none; stroke: rgb(240, 240, 240); stroke-opacity: 1; stroke-width: 1px; opacity: 1;"/><path class="js-line" d="M423.77,329.02L426.82,328.94L423.77,329.02" style="vector-effect: non-scaling-stroke; fill: none; stroke: rgb(240, 240, 240); stroke-opacity: 1; stroke-width: 1px; opacity: 1;"/><path class="js-line" d="M418.83,359.32L420.59,359.04L424.02,361.45L419.96,361.22L418.83,359.32" style="vector-effect: non-scaling-stroke; fill: none; stroke: rgb(240, 240, 240); stroke-opacity: 1; stroke-width: 1px; opacity: 1;"/><path class="js-line" d="M406.01,327.13L412.21,327.17L416.63,329.05L418.57,327.39L420.89,328.18L419.44,329.78L410.07,331.25L408.07,330.4L407.96,328.27L406.01,327.13" style="vector-effect: non-scaling-stroke; fill: none; stroke: rgb(240, 240, 240); stroke-opacity: 1; stroke-width: 1px; opacity: 1;"/><path class="js-line" d="M394.39,329.49L401.89,328.12L401.77,329.6L404.18,330.27L404.6,331.95L399.25,333.95L394.39,329.49" style="vector-effect: non-scaling-stroke; fill: none; stroke: rgb(240, 240, 240); stroke-opacity: 1; stroke-width: 1px; opacity: 1;"/><path class="js-line" d="M387.1,328.19L390.08,326.45L392.3,328.67L390.45,328.98L387.1,328.19" style="vector-effect: non-scaling-stroke; fill: none; stroke: rgb(240, 240, 240); stroke-opacity: 1; stroke-width: 1px; opacity: 1;"/><path class="js-line" d="M317.04,171.75L317.6,172.72L317.04,171.75" style="vector-effect: non-scaling-stroke; fill: none; stroke: rgb(240, 240, 240); stroke-opacity: 1; stroke-width: 1px; opacity: 1;"/><path class="js-line" d="M314.55,170.49L315.33,170.09L315.56,170.84L314.55,170.49" style="vector-effect: non-scaling-stroke; fill: none; stroke: rgb(240, 240, 240); stroke-opacity: 1; stroke-width: 1px; opacity: 1;"/><path class="js-line" d="M293.92,177.11L294.47,177.23L293.92,177.11" style="vector-effect: non-scaling-stroke; fill: none; stroke: rgb(240, 240, 240); stroke-opacity: 1; stroke-width: 1px; opacity: 1;"/><path class="js-line" d="M250.17,1.96L250.33,1.95L250.17,1.96" style="vector-effect: non-scaling-stroke; fill: none; stroke: rgb(240, 240, 240); stroke-opacity: 1; stroke-width: 1px; opacity: 1;"/><path class="js-line" d="M243.22,64.09L252.32,46.25L254.01,40.04L252.49,38.94L252.06,35.79L254.19,31.68L255.67,21.77L252.72,11.56L248.81,9.08L250.5,4.54L250.38,0L403.49,0.16L403.43,123.58L494.33,196.89L598.52,288.31L598.49,293.63L604.45,300.28L605.68,305.06L607.7,307.77L607.49,310.73L615.12,315.2L616.78,318.77L605.76,326L605.62,328.66L602.08,332.29L603.08,333.56L602.35,337.22L603.58,341.63L602.23,342.98L602.48,348.05L598.16,353.63L595.18,354.11L596.17,356.28L594.97,358.34L597.12,360.15L595.87,367.17L597.37,369.41L602.64,369.57L604.5,371.95L604.5,377.18L602.25,379.31L602.4,380.81L599.07,382L596.03,381.29L595.39,382.39L507.97,390L506.37,384.32L503.56,384.43L502.25,377.42L503.26,374.92L500.57,365.78L495.43,358.59L488.78,352.42L486.53,351.85L483.98,348.49L469.6,339.35L469.49,341L466.36,341.79L461.21,340.23L460.59,338.88L461.94,336.24L457.27,328.46L449.08,328.27L446.85,329.59L435.11,325.44L431.94,323.58L429.68,318.6L419.31,312.48L407.89,312.83L403.17,310.62L398.33,310.09L387,311.36L384.87,308.05L380.32,306.48L381.64,300.56L380.3,298.45L381.28,294.23L379.03,292.4L380.57,285.85L380.04,282.64L372.35,279.88L370.77,277.87L372.11,274.1L371.3,270.66L366.99,269.4L361.06,262.21L356.7,260.96L355.03,256.12L350.22,251.78L348.83,247.17L346.23,246.14L341.05,239.14L334.3,234.56L334.29,230.96L332.42,225.8L333.46,225.54L333.22,224.11L331.54,223.22L333.08,220.94L335.84,222L337.51,219.04L338.46,214.05L335.78,208.79L333.31,206.87L328.35,208.11L325.86,207.3L316.05,197.91L316.2,191.17L314.06,185.67L312.62,185.56L311.89,183.83L312.81,179.43L312.07,173.8L313.39,172.56L316.76,173.39L317.8,175.91L316.48,176.82L316.62,179.59L317.84,180.62L317.01,181.02L325.81,185.06L327.54,187.34L329.37,187.24L328.75,185.57L326.79,185.36L324.57,178.01L321.6,176.1L321.9,174.99L318.69,173.77L318.33,172.78L319.99,171.83L319.45,169.06L316.57,168.51L315.14,166.29L317.41,165.67L317.4,164.25L320.47,163.83L321.21,162.93L320.49,161.35L316.46,158.86L312.96,160.15L312.67,163.97L314.51,165.41L312.76,165.98L313.34,167.13L312.41,167.39L314.84,169.67L314.12,170.46L312.56,169.15L313.59,171.69L311.6,172.39L307.44,168.99L304.41,168.78L299.64,164.08L296.61,163.45L295.08,164.39L295.75,165.18L293.55,164.98L296.27,158.42L294.58,154.93L295.44,155.18L295.25,153.73L293.54,151.97L292.11,152.31L289.74,146.21L282.36,141.46L278.36,135.93L267.96,126.88L267.46,125.36L269.3,121.47L264.34,109.2L266.56,100.78L263.46,89.27L255.17,81.12L254.06,78.08L244.97,71.75L245.43,69.39L243.22,64.09" style="vector-effect: non-scaling-stroke; fill: none; stroke: rgb(240, 240, 240); stroke-opacity: 1; stroke-width: 1px; opacity: 1;"/></g><g class="points"/><g class="text"/></g></g></g><g class="overplot"/><path class="xlines-above crisp" d="M0,0" style="fill: none;"/><path class="ylines-above crisp" d="M0,0" style="fill: none;"/><g class="overlines-above"/><g class="xaxislayer-above"/><g class="yaxislayer-above"/><g class="overaxes-above"/></g></g><g class="polarlayer"/><g class="ternarylayer"/><g class="geolayer"/><g class="funnelarealayer"/><g class="pielayer"/><g class="treemaplayer"/><g class="sunburstlayer"/><g class="glimages"/><defs id="topdefs-1084c2"><g class="clips"/></defs><g class="layer-above"><g class="imagelayer"/><g class="shapelayer"/></g><g class="infolayer"><g class="g-gtitle"><text class="gtitle" x="450" y="20" text-anchor="middle" dy="0em" style="font-family: 'Open Sans', verdana, arial, sans-serif; font-size: 17px; fill: rgb(68, 68, 68); opacity: 1; font-weight: normal; white-space: pre;">Zika Virus Infection</text></g><g class="g-xtitle"/><g class="g-ytitle"/><g class="annotation" data-index="0" style="opacity: 1;"><g class="annotation-text-g" transform="rotate(0,878,22.499999999999982)"><g class="cursor-pointer" transform="translate(876, 20)"><rect class="bg" x="0.5" y="0.5" width="3" height="3" style="stroke-width: 1px; stroke: rgb(0, 0, 0); stroke-opacity: 0; fill: rgb(0, 0, 0); fill-opacity: 0;"/><text class="annotation-text" text-anchor="middle" x="2" y="2" style="font-family: 'Open Sans', verdana, arial, sans-serif; font-size: 12px; fill: rgb(68, 68, 68); fill-opacity: 1; white-space: pre;"><tspan style="font-weight:bold"></tspan></text></g></g></g></g></svg>