<svg class="main-svg" xmlns="http://www.w3.org/2000/svg" xmlns:xlink="http://www.w3.org/1999/xlink" width="900" height="450" style="" viewBox="0 0 900 450"><rect x="0" y="0" width="900" height="450" style="fill: rgb(255, 255, 255); fill-opacity: 1;"/><defs id="defs-50ec05"><g class="clips"><clipPath id="clip50ec05xyplot" class="plotclip"><rect width="860" height="390"/></clipPath><clipPath class="axesclip" id="clip50ec05x"><rect x="20" y="0" width="860" height="450"/></clipPath><clipPath class="axesclip" id="clip50ec05y"><rect x="0" y="40" width="900" height="390"/></clipPath><clipPath class="axesclip" id="clip50ec05xy"><rect x="20" y="40" width="860" height="390"/></clipPath></g><g class="gradients"/></defs><g class="bglayer"/><g class="layer-below"><g class="imagelayer"/><g class="shapelayer"/></g><g class="cartesianlayer"><g class="subplot xy"><g class="layer-subplot"><g class="shapelayer"/><g class="imagelayer"/></g><g class="gridlayer"><g class="x"/><g class="y"/></g><g class="zerolinelayer"/><path class="xlines-below"/><path class="ylines-below"/><g class="overlines-below"/><g class="xaxislayer-below"/><g class="yaxislayer-below"/><g class="overaxes-below"/><g class="plot" transform="translate(20, 40)" clip-path="url('#clip50ec05xyplot')"><g class="scatterlayer mlayer"><g class="trace scatter trace3b8fc0" style="stroke-miterlimit: 2; opacity: 1;"><g class="fills"><g><path class="js-fill" d="M400.84,135.87L407.82,129.2L406.95,126.37L418.75,135.71L417.24,139.51L420.08,144.24L419.39,147.9L417.2,148.6L417.77,149.67L416.58,151.36L414.37,149.78L414.06,147.63L407.66,150.15L400.83,146.41L400.84,135.87ZM366.14,144.08L373.95,141.67L381.44,144.13L391.95,142.37L395.67,138.92L398.36,138.53L399.4,135.78L400.84,135.87L400.84,143.82L385.48,146.3L381.37,148.43L380.53,150.81L374.12,152.93L370.99,155.71L367.3,155.54L366.15,152.45L366.14,144.08ZM328.3,88.93L329.16,87.22L338.93,87.01L341.58,83.08L343.66,83.15L345.82,78.29L348.58,78.29L352.43,76.18L353.79,79.47L351.89,81.78L351.51,86.54L364.24,99.52L361.69,100.75L361.34,102.22L356.04,102.22L354.99,106.09L352.32,109.63L344.92,110.47L344.47,111.45L334.13,111.11L336.01,101.51L331.01,101.63L331.13,97.4L332.01,96.75L330.89,96.09L332.8,95.16L332.72,93.53L329.9,91.99L328.3,88.93ZM367.36,155.53L370.99,155.71L374.12,152.93L380.53,150.81L381.37,148.43L388.09,145.32L400.84,143.82L400.83,146.41L402.75,146.96L397.07,149.42L386.62,164.4L384.03,165.2L384.81,166.62L383.75,168.11L379.73,171.75L369.35,161.19L367.36,155.53ZM302.27,107.85L325.85,107.75L325.85,106.55L334.79,107.81L332.73,113.33L333.8,117.56L333,118.02L338.21,123.85L336.81,124.94L336.77,126.74L318.43,126.75L315.92,125.15L315.9,122.91L312.92,121.42L313.45,116.46L312.07,115.01L306.09,114.38L302.62,110.64L303.82,108.58L302.27,107.85ZM250.22,2.06L250.38,2.05L250.22,2.06ZM248.82,8.98L250.54,4.64L250.43,0.1L275.64,0L274.13,3.9L271.12,4.58L268.89,7.06L270.47,11.82L268.33,16.71L269.67,16.74L269.24,18.5L270.91,19.19L272.23,22.2L270.42,25.49L266.47,25.55L266.46,22.11L255.74,22.09L252.76,11.66L248.82,8.98ZM362.01,135.49L365.66,127.11L369.37,126.27L369.45,125.11L372.22,125.62L375.55,123.25L382.97,127.18L385.57,125.96L387.65,122.47L394.73,122.65L398.25,120.86L403.38,120.85L403.43,123.64L407.84,127.77L405.36,132.62L399.4,135.78L398.36,138.53L395.67,138.92L392.51,142.2L380.63,144.09L373.95,141.67L366.13,143.88L362.82,135.28L362.01,135.49ZM370.42,216.42L379.63,207.96L382.01,207.97L381.72,206.08L383.79,204.19L387.09,209.59L386.97,211.78L389.97,214.84L392.91,215.78L400.58,213.22L410.23,212.19L416.13,204.25L417.25,204.91L417.83,203.1L419.41,203.32L420.27,201.74L419.15,201.21L419.48,200.1L421.39,199.82L422.55,201.49L424.11,199.32L426.66,199.1L427.84,197.37L428.46,191.49L439,181.89L442.82,183.35L445.04,186.31L447.23,185.9L448.41,187.21L447.56,191.87L450.13,192.5L451.97,195.23L451.2,196.65L451.89,199.62L460.11,203.39L462.99,212.45L461.84,213.04L463.04,216.54L440.45,216.66L440.36,220.15L428.74,220L428.72,223.58L422.86,223.52L415.57,229.97L404.95,230.7L404.96,239.74L391.89,251.05L390.37,248.68L387.73,248.5L381.65,243.03L379.89,242.77L379.05,240.47L380.68,238.85L378.77,237.06L378.66,235.09L381.79,233.69L381.77,227.1L370.42,216.42ZM296.71,92.73L296.72,90.75L329.83,90.66L332.92,94.87L330.89,96.09L332.01,96.75L330.86,101.28L336.01,101.51L335.33,106L334.79,107.81L325.85,106.55L325.85,107.75L303.94,107.84L304.06,99.71L298.62,99.73L298.36,94.42L296.71,92.73ZM243.27,64.17L253.14,44.29L254.06,40.13L252.54,39.03L252.11,35.89L254.23,31.77L255.74,22.09L266.46,22.11L266.47,25.55L277.23,26.15L277.91,31.47L279.62,33.82L277.6,38.09L279.7,40.7L276.96,44.74L274.1,43.28L271.79,44.17L274,47.81L274.72,52.19L274.67,82.35L255.48,81.5L254.1,78.16L245.02,71.83L245.48,69.47L243.27,64.17ZM544.96,385.63L545.73,353.26L598.71,352.95L595.13,354.16L596.13,356.29L594.93,358.35L597.07,360.16L595.78,367.06L597.33,369.41L602.6,369.57L604.45,371.95L604.46,377.19L601.9,381.12L544.96,386.52L544.96,385.63ZM447.44,189.79L448.54,188.08L447.98,186.94L482.22,186.87L561.61,255.06L475.85,255.9L476.75,250.24L473.7,243.37L473.99,240.21L471.51,235.67L472.5,232.96L470.22,231.17L471.01,229.88L468.35,229.32L467.06,227.34L467.46,225.65L465.56,224.18L466.17,222.61L462.84,218.77L463.94,217.71L461.84,213.04L462.99,212.45L463.03,210.65L460.26,203.56L452.36,200.18L451.2,196.65L451.97,195.23L450.13,192.5L447.8,192.23L447.44,189.79ZM396.42,255.9L489.48,255.57L489.52,295.74L443.64,295.91L444.12,297.04L430.95,296.07L429.74,293.37L422.63,292.49L422.63,285.25L419.42,284.8L419.69,281L415.57,281.21L415.58,277.6L410.39,277.56L410.4,273.96L407.82,273.95L407.83,270.32L403.56,270.31L403.57,269.11L400.32,266.72L400.35,263.1L396.42,263.11L396.42,255.9ZM392.02,251.04L404.96,239.74L404.95,230.7L415.57,229.97L418.98,227.08L420.65,227.08L420.59,230.68L422.55,230.7L422.56,236.13L420.57,236.1L420.25,255.89L395.69,255.9L394.05,253.59L394.63,252.26L392.02,251.04ZM291.03,119.7L291.63,116.47L294.64,113.91L291.73,106.83L292.16,102.88L298.44,101.83L298.62,99.73L304.06,99.71L303.94,107.84L302.27,107.85L303.84,108.84L302.62,110.75L306.62,114.66L312.07,115.01L313.52,116.62L312.92,121.42L315.9,122.91L315.92,125.15L318.43,126.75L315.46,127.59L317.22,131.17L313.94,135.77L308,137.32L300.95,129.48L296.31,127.74L294.94,123.74L292.41,122.76L291.03,119.7ZM355.07,44.8L355.08,33.66L403.47,33.65L403.42,93.87L398.12,94.47L399.45,92.08L399.85,86.12L394.5,77.99L389.68,77.09L384.91,72.17L379.77,69.76L375.69,69.41L371.79,72.48L371.79,74.22L369.73,74.52L364.9,71.87L364.9,64.03L355.22,64.08L355.07,44.8ZM383.65,204.88L386.15,202.05L401.33,198.61L412.13,188.84L416.14,188.81L416.15,187.01L418.58,185.64L418.6,182.94L428.58,173.97L431.73,176.56L435.52,175.94L438.67,180.17L439,181.89L427.97,192.2L427.84,197.37L426.66,199.1L424.11,199.32L422.55,201.49L421.39,199.82L419.48,200.1L419.15,201.21L420.27,201.74L419.41,203.32L417.83,203.1L417.25,204.91L416.13,204.25L414.44,205.66L410.06,212.28L400.58,213.22L392.91,215.78L389.97,214.84L386.97,211.78L387.09,209.59L383.65,204.88ZM389.14,178.21L392.11,179.09L390.93,176.13L394,175.8L397.14,173.09L398.85,173.82L400.58,171.88L405.71,174.59L410.43,174.92L415.56,173.01L419.51,168.82L422.57,170.77L424.3,170.31L428.64,173.77L418.6,182.94L418.58,185.64L416.15,187.01L416.14,188.81L412.13,188.84L401.58,198.48L396.85,195L389.14,178.21ZM257.27,82.38L296.85,83.33L297.73,85.05L296.24,86.3L295.91,88.81L296.69,92.81L298.36,94.42L298.44,101.83L292.16,102.88L291.73,106.83L294.64,113.91L291.63,116.47L291.03,120.31L293.44,123.77L294.94,123.74L296.31,127.74L300.94,129.8L289.49,130.24L289.51,131.49L281.07,131.59L281.08,132.81L275.53,133.57L268,126.95L267.5,125.43L269.34,121.53L264.38,109.27L266.6,100.85L265.6,95.2L264.31,93.84L263.51,89.35L257.27,82.38ZM350.52,2.1L350.87,0.15L403.5,0.26L403.47,33.65L350.91,33.67L350.52,2.1ZM416.23,152.91L417.77,149.67L417.2,148.6L419.35,147.97L420.1,145.02L417.26,139.67L418.53,135.44L482.22,186.87L445.24,186.42L442.82,183.35L439.06,181.99L435.65,176.02L430.36,176.09L432.42,173.27L432.51,169.46L428.43,166.76L428.74,163.84L427.24,161.4L424.16,160.03L423.1,160.86L421.74,158.36L419.98,158.93L416.82,156.63L417.83,154.97L416.23,152.91ZM331.61,223.26L333.1,220.99L334.91,222.44L336.9,220.65L338.31,210.96L343.32,209.61L344.53,212.36L350.33,216.57L350.09,218.98L354.69,220.87L355.9,226.64L358.44,226.42L365.65,233.87L366.16,236.52L370.05,234.41L377.36,239.11L377.76,237.67L375.91,234.5L377.9,235.39L380.68,238.85L379.05,240.47L379.99,242.9L381.65,243.03L387.73,248.5L390.37,248.68L391.74,251.02L393.45,251.1L395.69,255.9L354.55,255.66L350.24,251.81L348.85,247.21L346.25,246.18L342.58,240.49L334.33,234.6L334.31,231L332.45,225.84L333.49,225.58L333.25,224.15L331.61,223.26ZM307.3,140.16L308,137.32L313.94,135.77L317.01,131.78L316.44,129.22L320.33,130.22L322.65,135.99L326.11,140.64L327.04,143.68L326.2,147.15L328.44,151.81L323.31,151.82L323.69,158.44L316.01,158.41L318.09,156.83L316.39,152.09L312.73,147.36L313.24,146.17L307.3,140.16ZM356.97,119.1L357.43,112.44L362.48,107.98L374.4,105.6L379.66,101.93L383.09,102.36L385.1,105.25L403.36,105.29L403.28,110.59L377.95,111.28L367.54,119.02L366.83,121.48L364.64,123.41L362.16,122.07L359.65,123.14L356.97,122.2L356.97,119.1ZM349.53,133.87L350.08,126.68L352.07,126.67L352.06,123.69L356.01,121.45L359.07,123.13L362.16,122.07L365.62,123.06L367.52,119.04L378.36,111.1L403.28,110.59L403.38,120.85L398.25,120.86L394.73,122.65L387.65,122.47L385.57,125.96L382.97,127.18L376.35,123.2L373.95,123.62L372.22,125.62L369.38,125.14L369.37,126.27L365.21,127.74L362.24,135.49L349.53,133.87ZM349.07,64.43L364.9,64.03L364.9,71.87L369.73,74.52L371.79,74.22L371.79,72.48L375.69,69.41L382.51,70.67L389.68,77.09L395.85,78.89L396.16,81.88L399.85,86.12L399.45,92.08L398.12,94.47L379.7,94.53L378.76,95.75L376.22,93.98L374.67,94.39L371.82,91.62L369.52,93.19L368.93,95.96L364.35,99.02L351.51,86.54L351.89,81.78L353.8,78.89L352.43,76.18L350.92,76.01L350.99,74.57L353.77,73.67L354.44,71.17L353.44,70.15L354.7,69.67L349.97,67.94L349.07,64.43ZM335.79,162.02L341.3,161.26L342.22,158.24L344.89,156.58L345.91,151.16L348.21,149.91L347.78,147.08L348.81,145.6L346.81,144.31L348.7,140.47L344.23,136.92L345.22,134.51L362.82,135.28L366.13,143.89L366.15,152.45L354.63,155.42L350.02,154.12L345.91,159.87L346.52,160.81L342.67,160.97L341.7,162.96L338.88,164.04L335.79,162.02ZM343.73,210.39L346.77,210.26L349.36,206.72L359.34,207.62L358.6,209.03L360.27,209.6L361.99,212.75L369.54,216.24L381.77,227.1L381.79,233.69L379.37,234.27L378.81,236.21L375.91,234.5L377.76,237.67L377.36,239.11L370.05,234.41L366.16,236.52L365.65,233.87L358.44,226.42L355.8,226.51L356.4,225.5L354.41,220.51L350.09,218.98L350.33,216.57L344.53,212.36L343.73,210.39ZM483.32,330.62L484.59,328.64L485.95,328.73L489,317.7L488.24,295.73L489.52,295.74L489.48,255.57L561.61,255.06L598.48,288.34L598.44,293.65L604.4,300.31L605.64,305.08L607.66,307.79L607.44,310.75L615.07,315.22L616.73,318.79L605.67,326.33L573.67,326.4L573.67,328.21L515.04,328.21L515.04,329.41L492.2,328.23L492.19,330.09L490.3,330.78L490.28,332.7L488.67,332.7L488,334.93L483.32,330.62ZM345.88,163.03L346.64,160.65L345.91,159.87L349.96,154.14L354.63,155.42L366.15,152.45L369.8,161.63L370.02,175.6L367.4,174.68L363.13,175.45L349.98,186.17L346.9,183.66L346.89,172.4L347.72,171.01L346.09,170.65L346.91,167.98L346.06,164.5L346.87,164.12L345.88,163.03ZM354.55,255.66L396.42,255.9L396.42,263.11L400.35,263.1L400.32,266.72L403.57,269.11L403.56,270.31L407.83,270.32L407.82,273.95L410.4,273.96L410.39,277.56L415.58,277.6L415.57,281.21L419.69,281L419.42,284.8L422.63,285.25L422.63,292.49L420.33,292.63L400.49,283.69L398.26,284.48L395.84,287.57L391.7,287.7L392.5,292.31L387.47,288.9L380.43,290.08L379.81,282.33L376.79,281.06L375.84,281.84L370.88,278.2L372.12,274.13L371.32,270.69L367.01,269.43L361.07,262.24L356.72,261L354.55,255.66ZM319.25,198.32L325.24,197.15L325.26,194.24L329.85,199.15L339.7,204.02L341.01,205.71L340.29,206.43L346.01,210.18L340.77,209.55L337.68,212.17L333.34,206.92L326.94,207.84L322.66,204.96L319.25,198.32ZM291.96,69.73L294.52,65.2L298.04,64.07L302.91,59.56L305.61,58.73L303.46,54.02L306.88,49.98L306.6,48.4L308.99,45.34L308.94,42.41L311.62,40.64L311.18,38.24L314.18,37.25L314.59,34.67L312.68,33.71L355.08,33.66L355.22,64.08L336.18,64.2L319.56,67.14L311.73,66.18L307.13,68.91L303.7,67.37L299.08,68.06L297.39,69.8L292.4,70.67L291.96,69.73ZM365.04,101.38L366.25,100.6L366.79,97.28L369.31,95.34L369.52,93.19L371.82,91.62L374.67,94.39L376.22,93.98L378.76,95.75L379.7,94.53L403.42,93.87L403.36,105.29L385.1,105.25L383.09,102.36L379.66,101.93L375.99,104.99L366.33,107.5L365.04,101.38ZM268.35,16.6L270.47,11.82L268.89,7.06L271.12,4.58L274.13,3.9L275.64,0L350.87,0.15L350.91,33.67L312.68,33.71L312.12,29.69L313.4,28.05L310,26.07L309.33,27.81L307.46,27.78L307.07,29.3L301.65,32.87L295.86,33.76L295.51,37.52L297.24,38.27L298.04,40.63L293.11,41.06L290.48,38.12L285.75,38.11L283.73,35.44L280.6,35L277.91,31.47L276.67,25.67L270.42,25.49L272.23,22.2L270.91,19.19L269.24,18.5L269.67,16.74L268.35,16.6ZM316.13,158.42L323.69,158.44L323.31,151.82L328.56,151.34L326.2,147.15L327.5,143.57L330.31,144.69L332.96,142.85L341.26,142.66L341.92,151.9L345.57,151.93L344.8,156.73L342.22,158.24L341.3,161.26L338.12,162.35L328.57,162.26L325.09,163.47L321,162.34L316.13,158.42ZM349.44,186.43L363.13,175.45L367.4,174.68L370.02,175.6L369.8,161.63L389.38,179.91L367.72,189.56L368.42,191.79L358.89,200.47L356.92,198.46L352.43,199.59L350.47,194.34L352.39,193.21L352.27,190.34L350.54,189.73L349.44,186.43ZM332.71,113.59L334.13,111.11L344.23,111.03L346.1,126.85L347.39,124.76L352.07,123.79L352.07,126.67L350.08,126.68L349.53,134.56L345.22,134.51L345.6,133.4L344.45,132.48L342.68,134.22L340.59,129.43L337.52,128.71L338.39,127.56L336.59,125.5L338.23,123.79L333.05,118.15L333.8,117.56L332.71,113.59ZM292.08,70.61L303.55,67.38L307.13,68.91L311.73,66.18L324.51,66.81L327.2,65.34L342.21,63.76L349.05,64.07L349.97,67.94L354.7,69.67L353.44,70.15L354.44,71.17L353.86,73.5L351.06,74.48L350.67,77.4L345.82,78.29L343.66,83.15L341.58,83.08L338.93,87.01L329.16,87.22L328.27,89L329.11,90.77L296.62,90.7L296.24,86.3L297.73,85.05L294.84,76.46L295.36,72.85L292.08,70.61ZM271.84,44.05L274.1,43.28L276.96,44.74L278.18,43.55L279.66,39.97L277.59,37.34L278.48,37.42L279.62,33.82L283.73,35.44L285.75,38.11L290.48,38.12L293.11,41.06L297.45,41.48L298.19,40.03L295.51,37.52L295.86,33.76L301.65,32.87L307.07,29.3L307.46,27.78L309.33,27.81L310,26.07L313.4,28.05L311.8,32.44L314.59,34.67L314.37,36.77L311.18,38.24L311.62,40.64L308.94,42.41L308.99,45.34L306.6,48.4L306.88,49.98L303.46,54.02L305.61,58.73L302.91,59.56L298.04,64.07L294.52,65.2L292.07,68.26L292.23,70.99L295.27,72.49L294.84,76.46L296.85,83.33L274.67,83.38L274,47.81L271.84,44.05ZM419.22,226.85L422.86,223.52L428.72,223.58L428.74,220L440.36,220.15L440.45,216.66L463.38,216.69L463.98,218.15L462.84,218.77L466.17,222.61L465.53,224.03L467.46,225.65L467.06,227.34L468.52,229.49L471.13,230L470.22,231.17L472.5,232.96L471.51,235.67L473.99,240.21L473.7,243.37L476.75,250.24L475.85,255.9L420.25,255.89L420.57,236.1L422.56,236.13L422.55,230.7L420.59,230.68L420.65,227.08L419.22,226.85ZM379.73,171.71L384.81,166.62L384.03,165.2L386.62,164.4L397.07,149.42L402.75,146.96L407.66,150.15L414.22,147.71L414.37,149.78L416.58,151.36L416.14,153.02L417.83,154.97L416.82,156.63L419.98,158.93L421.74,158.36L423.1,160.86L424.16,160.03L427.24,161.4L428.74,163.84L428.43,166.76L432.15,168.97L432.68,171.25L432.38,173.34L430.03,175.57L426.16,171.38L422.57,170.77L420.34,168.77L416.24,171.21L415.56,173.01L410.43,174.92L405.71,174.59L400.58,171.88L398.85,173.82L397.14,173.09L394,175.8L390.93,176.13L392.21,179L389.23,177.86L389.38,179.91L379.73,171.71ZM423.77,329.03L426.82,328.96L423.77,329.03ZM422.44,313.98L423.8,311.41L423.73,292.48L425.92,292.5L425.91,293.37L429.74,293.37L430.95,296.07L444.12,297.04L453.16,319.71L451.88,319.71L451.87,322.68L447.48,322.68L441.96,326.52L441.81,327.74L431.94,323.59L429.68,318.62L422.44,313.98ZM418.83,359.33L420.59,359.05L424.02,361.46L419.96,361.23L418.83,359.33ZM344.01,113.35L344.92,110.47L349.06,110.68L353.58,108.61L356.04,102.22L361.34,102.22L362,100.46L366.79,97.28L366.25,100.6L365.02,101.5L366.33,107.5L362.48,107.98L359.14,111.97L357.46,112.39L356.97,122.2L355.81,121.49L347.39,124.76L346.22,126.99L344.96,121.28L345.79,119.44L344.01,113.35Z" style="fill: rgb(68, 1, 84); fill-opacity: 1; stroke-width: 0;"/></g></g><g class="errorbars"/><g class="lines"><path class="js-line" d="M400.84,135.87L407.82,129.2L406.95,126.37L418.75,135.71L417.24,139.51L420.08,144.24L419.39,147.9L417.2,148.6L417.77,149.67L416.58,151.36L414.37,149.78L414.06,147.63L407.66,150.15L400.83,146.41L400.84,135.87" style="vector-effect: non-scaling-stroke; fill: none; stroke: rgb(0, 0, 0); stroke-opacity: 1; stroke-width: 0px; opacity: 1;"/><path class="js-line" d="M366.14,144.08L373.95,141.67L381.44,144.13L391.95,142.37L395.67,138.92L398.36,138.53L399.4,135.78L400.84,135.87L400.84,143.82L385.48,146.3L381.37,148.43L380.53,150.81L374.12,152.93L370.99,155.71L367.3,155.54L366.15,152.45L366.14,144.08" style="vector-effect: non-scaling-stroke; fill: none; stroke: rgb(0, 0, 0); stroke-opacity: 1; stroke-width: 0px; opacity: 1;"/><path class="js-line" d="M328.3,88.93L329.16,87.22L338.93,87.01L341.58,83.08L343.66,83.15L345.82,78.29L348.58,78.29L352.43,76.18L353.79,79.47L351.89,81.78L351.51,86.54L364.24,99.52L361.69,100.75L361.34,102.22L356.04,102.22L354.99,106.09L352.32,109.63L344.92,110.47L344.47,111.45L334.13,111.11L336.01,101.51L331.01,101.63L331.13,97.4L332.01,96.75L330.89,96.09L332.8,95.16L332.72,93.53L329.9,91.99L328.3,88.93" style="vector-effect: non-scaling-stroke; fill: none; stroke: rgb(0, 0, 0); stroke-opacity: 1; stroke-width: 0px; opacity: 1;"/><path class="js-line" d="M367.36,155.53L370.99,155.71L374.12,152.93L380.53,150.81L381.37,148.43L388.09,145.32L400.84,143.82L400.83,146.41L402.75,146.96L397.07,149.42L386.62,164.4L384.03,165.2L384.81,166.62L383.75,168.11L379.73,171.75L369.35,161.19L367.36,155.53" style="vector-effect: non-scaling-stroke; fill: none; stroke: rgb(0, 0, 0); stroke-opacity: 1; stroke-width: 0px; opacity: 1;"/><path class="js-line" d="M302.27,107.85L325.85,107.75L325.85,106.55L334.79,107.81L332.73,113.33L333.8,117.56L333,118.02L338.21,123.85L336.81,124.94L336.77,126.74L318.43,126.75L315.92,125.15L315.9,122.91L312.92,121.42L313.45,116.46L312.07,115.01L306.09,114.38L302.62,110.64L303.82,108.58L302.27,107.85" style="vector-effect: non-scaling-stroke; fill: none; stroke: rgb(0, 0, 0); stroke-opacity: 1; stroke-width: 0px; opacity: 1;"/><path class="js-line" d="M250.22,2.06L250.38,2.05L250.22,2.06" style="vector-effect: non-scaling-stroke; fill: none; stroke: rgb(0, 0, 0); stroke-opacity: 1; stroke-width: 0px; opacity: 1;"/><path class="js-line" d="M248.82,8.98L250.54,4.64L250.43,0.1L275.64,0L274.13,3.9L271.12,4.58L268.89,7.06L270.47,11.82L268.33,16.71L269.67,16.74L269.24,18.5L270.91,19.19L272.23,22.2L270.42,25.49L266.47,25.55L266.46,22.11L255.74,22.09L252.76,11.66L248.82,8.98" style="vector-effect: non-scaling-stroke; fill: none; stroke: rgb(0, 0, 0); stroke-opacity: 1; stroke-width: 0px; opacity: 1;"/><path class="js-line" d="M362.01,135.49L365.66,127.11L369.37,126.27L369.45,125.11L372.22,125.62L375.55,123.25L382.97,127.18L385.57,125.96L387.65,122.47L394.73,122.65L398.25,120.86L403.38,120.85L403.43,123.64L407.84,127.77L405.36,132.62L399.4,135.78L398.36,138.53L395.67,138.92L392.51,142.2L380.63,144.09L373.95,141.67L366.13,143.88L362.82,135.28L362.01,135.49" style="vector-effect: non-scaling-stroke; fill: none; stroke: rgb(0, 0, 0); stroke-opacity: 1; stroke-width: 0px; opacity: 1;"/><path class="js-line" d="M370.42,216.42L379.63,207.96L382.01,207.97L381.72,206.08L383.79,204.19L387.09,209.59L386.97,211.78L389.97,214.84L392.91,215.78L400.58,213.22L410.23,212.19L416.13,204.25L417.25,204.91L417.83,203.1L419.41,203.32L420.27,201.74L419.15,201.21L419.48,200.1L421.39,199.82L422.55,201.49L424.11,199.32L426.66,199.1L427.84,197.37L428.46,191.49L439,181.89L442.82,183.35L445.04,186.31L447.23,185.9L448.41,187.21L447.56,191.87L450.13,192.5L451.97,195.23L451.2,196.65L451.89,199.62L460.11,203.39L462.99,212.45L461.84,213.04L463.04,216.54L440.45,216.66L440.36,220.15L428.74,220L428.72,223.58L422.86,223.52L415.57,229.97L404.95,230.7L404.96,239.74L391.89,251.05L390.37,248.68L387.73,248.5L381.65,243.03L379.89,242.77L379.05,240.47L380.68,238.85L378.77,237.06L378.66,235.09L381.79,233.69L381.77,227.1L370.42,216.42" style="vector-effect: non-scaling-stroke; fill: none; stroke: rgb(0, 0, 0); stroke-opacity: 1; stroke-width: 0px; opacity: 1;"/><path class="js-line" d="M296.71,92.73L296.72,90.75L329.83,90.66L332.92,94.87L330.89,96.09L332.01,96.75L330.86,101.28L336.01,101.51L335.33,106L334.79,107.81L325.85,106.55L325.85,107.75L303.94,107.84L304.06,99.71L298.62,99.73L298.36,94.42L296.71,92.73" style="vector-effect: non-scaling-stroke; fill: none; stroke: rgb(0, 0, 0); stroke-opacity: 1; stroke-width: 0px; opacity: 1;"/><path class="js-line" d="M243.27,64.17L253.14,44.29L254.06,40.13L252.54,39.03L252.11,35.89L254.23,31.77L255.74,22.09L266.46,22.11L266.47,25.55L277.23,26.15L277.91,31.47L279.62,33.82L277.6,38.09L279.7,40.7L276.96,44.74L274.1,43.28L271.79,44.17L274,47.81L274.72,52.19L274.67,82.35L255.48,81.5L254.1,78.16L245.02,71.83L245.48,69.47L243.27,64.17" style="vector-effect: non-scaling-stroke; fill: none; stroke: rgb(0, 0, 0); stroke-opacity: 1; stroke-width: 0px; opacity: 1;"/><path class="js-line" d="M544.96,385.63L545.73,353.26L598.71,352.95L595.13,354.16L596.13,356.29L594.93,358.35L597.07,360.16L595.78,367.06L597.33,369.41L602.6,369.57L604.45,371.95L604.46,377.19L601.9,381.12L544.96,386.52L544.96,385.63" style="vector-effect: non-scaling-stroke; fill: none; stroke: rgb(0, 0, 0); stroke-opacity: 1; stroke-width: 0px; opacity: 1;"/><path class="js-line" d="M447.44,189.79L448.54,188.08L447.98,186.94L482.22,186.87L561.61,255.06L475.85,255.9L476.75,250.24L473.7,243.37L473.99,240.21L471.51,235.67L472.5,232.96L470.22,231.17L471.01,229.88L468.35,229.32L467.06,227.34L467.46,225.65L465.56,224.18L466.17,222.61L462.84,218.77L463.94,217.71L461.84,213.04L462.99,212.45L463.03,210.65L460.26,203.56L452.36,200.18L451.2,196.65L451.97,195.23L450.13,192.5L447.8,192.23L447.44,189.79" style="vector-effect: non-scaling-stroke; fill: none; stroke: rgb(0, 0, 0); stroke-opacity: 1; stroke-width: 0px; opacity: 1;"/><path class="js-line" d="M396.42,255.9L489.48,255.57L489.52,295.74L443.64,295.91L444.12,297.04L430.95,296.07L429.74,293.37L422.63,292.49L422.63,285.25L419.42,284.8L419.69,281L415.57,281.21L415.58,277.6L410.39,277.56L410.4,273.96L407.82,273.95L407.83,270.32L403.56,270.31L403.57,269.11L400.32,266.72L400.35,263.1L396.42,263.11L396.42,255.9" style="vector-effect: non-scaling-stroke; fill: none; stroke: rgb(0, 0, 0); stroke-opacity: 1; stroke-width: 0px; opacity: 1;"/><path class="js-line" d="M392.02,251.04L404.96,239.74L404.95,230.7L415.57,229.97L418.98,227.08L420.65,227.08L420.59,230.68L422.55,230.7L422.56,236.13L420.57,236.1L420.25,255.89L395.69,255.9L394.05,253.59L394.63,252.26L392.02,251.04" style="vector-effect: non-scaling-stroke; fill: none; stroke: rgb(0, 0, 0); stroke-opacity: 1; stroke-width: 0px; opacity: 1;"/><path class="js-line" d="M291.03,119.7L291.63,116.47L294.64,113.91L291.73,106.83L292.16,102.88L298.44,101.83L298.62,99.73L304.06,99.71L303.94,107.84L302.27,107.85L303.84,108.84L302.62,110.75L306.62,114.66L312.07,115.01L313.52,116.62L312.92,121.42L315.9,122.91L315.92,125.15L318.43,126.75L315.46,127.59L317.22,131.17L313.94,135.77L308,137.32L300.95,129.48L296.31,127.74L294.94,123.74L292.41,122.76L291.03,119.7" style="vector-effect: non-scaling-stroke; fill: none; stroke: rgb(0, 0, 0); stroke-opacity: 1; stroke-width: 0px; opacity: 1;"/><path class="js-line" d="M355.07,44.8L355.08,33.66L403.47,33.65L403.42,93.87L398.12,94.47L399.45,92.08L399.85,86.12L394.5,77.99L389.68,77.09L384.91,72.17L379.77,69.76L375.69,69.41L371.79,72.48L371.79,74.22L369.73,74.52L364.9,71.87L364.9,64.03L355.22,64.08L355.07,44.8" style="vector-effect: non-scaling-stroke; fill: none; stroke: rgb(0, 0, 0); stroke-opacity: 1; stroke-width: 0px; opacity: 1;"/><path class="js-line" d="M383.65,204.88L386.15,202.05L401.33,198.61L412.13,188.84L416.14,188.81L416.15,187.01L418.58,185.64L418.6,182.94L428.58,173.97L431.73,176.56L435.52,175.94L438.67,180.17L439,181.89L427.97,192.2L427.84,197.37L426.66,199.1L424.11,199.32L422.55,201.49L421.39,199.82L419.48,200.1L419.15,201.21L420.27,201.74L419.41,203.32L417.83,203.1L417.25,204.91L416.13,204.25L414.44,205.66L410.06,212.28L400.58,213.22L392.91,215.78L389.97,214.84L386.97,211.78L387.09,209.59L383.65,204.88" style="vector-effect: non-scaling-stroke; fill: none; stroke: rgb(0, 0, 0); stroke-opacity: 1; stroke-width: 0px; opacity: 1;"/><path class="js-line" d="M389.14,178.21L392.11,179.09L390.93,176.13L394,175.8L397.14,173.09L398.85,173.82L400.58,171.88L405.71,174.59L410.43,174.92L415.56,173.01L419.51,168.82L422.57,170.77L424.3,170.31L428.64,173.77L418.6,182.94L418.58,185.64L416.15,187.01L416.14,188.81L412.13,188.84L401.58,198.48L396.85,195L389.14,178.21" style="vector-effect: non-scaling-stroke; fill: none; stroke: rgb(0, 0, 0); stroke-opacity: 1; stroke-width: 0px; opacity: 1;"/><path class="js-line" d="M257.27,82.38L296.85,83.33L297.73,85.05L296.24,86.3L295.91,88.81L296.69,92.81L298.36,94.42L298.44,101.83L292.16,102.88L291.73,106.83L294.64,113.91L291.63,116.47L291.03,120.31L293.44,123.77L294.94,123.74L296.31,127.74L300.94,129.8L289.49,130.24L289.51,131.49L281.07,131.59L281.08,132.81L275.53,133.57L268,126.95L267.5,125.43L269.34,121.53L264.38,109.27L266.6,100.85L265.6,95.2L264.31,93.84L263.51,89.35L257.27,82.38" style="vector-effect: non-scaling-stroke; fill: none; stroke: rgb(0, 0, 0); stroke-opacity: 1; stroke-width: 0px; opacity: 1;"/><path class="js-line" d="M350.52,2.1L350.87,0.15L403.5,0.26L403.47,33.65L350.91,33.67L350.52,2.1" style="vector-effect: non-scaling-stroke; fill: none; stroke: rgb(0, 0, 0); stroke-opacity: 1; stroke-width: 0px; opacity: 1;"/><path class="js-line" d="M416.23,152.91L417.77,149.67L417.2,148.6L419.35,147.97L420.1,145.02L417.26,139.67L418.53,135.44L482.22,186.87L445.24,186.42L442.82,183.35L439.06,181.99L435.65,176.02L430.36,176.09L432.42,173.27L432.51,169.46L428.43,166.76L428.74,163.84L427.24,161.4L424.16,160.03L423.1,160.86L421.74,158.36L419.98,158.93L416.82,156.63L417.83,154.97L416.23,152.91" style="vector-effect: non-scaling-stroke; fill: none; stroke: rgb(0, 0, 0); stroke-opacity: 1; stroke-width: 0px; opacity: 1;"/><path class="js-line" d="M331.61,223.26L333.1,220.99L334.91,222.44L336.9,220.65L338.31,210.96L343.32,209.61L344.53,212.36L350.33,216.57L350.09,218.98L354.69,220.87L355.9,226.64L358.44,226.42L365.65,233.87L366.16,236.52L370.05,234.41L377.36,239.11L377.76,237.67L375.91,234.5L377.9,235.39L380.68,238.85L379.05,240.47L379.99,242.9L381.65,243.03L387.73,248.5L390.37,248.68L391.74,251.02L393.45,251.1L395.69,255.9L354.55,255.66L350.24,251.81L348.85,247.21L346.25,246.18L342.58,240.49L334.33,234.6L334.31,231L332.45,225.84L333.49,225.58L333.25,224.15L331.61,223.26" style="vector-effect: non-scaling-stroke; fill: none; stroke: rgb(0, 0, 0); stroke-opacity: 1; stroke-width: 0px; opacity: 1;"/><path class="js-line" d="M307.3,140.16L308,137.32L313.94,135.77L317.01,131.78L316.44,129.22L320.33,130.22L322.65,135.99L326.11,140.64L327.04,143.68L326.2,147.15L328.44,151.81L323.31,151.82L323.69,158.44L316.01,158.41L318.09,156.83L316.39,152.09L312.73,147.36L313.24,146.17L307.3,140.16" style="vector-effect: non-scaling-stroke; fill: none; stroke: rgb(0, 0, 0); stroke-opacity: 1; stroke-width: 0px; opacity: 1;"/><path class="js-line" d="M356.97,119.1L357.43,112.44L362.48,107.98L374.4,105.6L379.66,101.93L383.09,102.36L385.1,105.25L403.36,105.29L403.28,110.59L377.95,111.28L367.54,119.02L366.83,121.48L364.64,123.41L362.16,122.07L359.65,123.14L356.97,122.2L356.97,119.1" style="vector-effect: non-scaling-stroke; fill: none; stroke: rgb(0, 0, 0); stroke-opacity: 1; stroke-width: 0px; opacity: 1;"/><path class="js-line" d="M349.53,133.87L350.08,126.68L352.07,126.67L352.06,123.69L356.01,121.45L359.07,123.13L362.16,122.07L365.62,123.06L367.52,119.04L378.36,111.1L403.28,110.59L403.38,120.85L398.25,120.86L394.73,122.65L387.65,122.47L385.57,125.96L382.97,127.18L376.35,123.2L373.95,123.62L372.22,125.62L369.38,125.14L369.37,126.27L365.21,127.74L362.24,135.49L349.53,133.87" style="vector-effect: non-scaling-stroke; fill: none; stroke: rgb(0, 0, 0); stroke-opacity: 1; stroke-width: 0px; opacity: 1;"/><path class="js-line" d="M349.07,64.43L364.9,64.03L364.9,71.87L369.73,74.52L371.79,74.22L371.79,72.48L375.69,69.41L382.51,70.67L389.68,77.09L395.85,78.89L396.16,81.88L399.85,86.12L399.45,92.08L398.12,94.47L379.7,94.53L378.76,95.75L376.22,93.98L374.67,94.39L371.82,91.62L369.52,93.19L368.93,95.96L364.35,99.02L351.51,86.54L351.89,81.78L353.8,78.89L352.43,76.18L350.92,76.01L350.99,74.57L353.77,73.67L354.44,71.17L353.44,70.15L354.7,69.67L349.97,67.94L349.07,64.43" style="vector-effect: non-scaling-stroke; fill: none; stroke: rgb(0, 0, 0); stroke-opacity: 1; stroke-width: 0px; opacity: 1;"/><path class="js-line" d="M335.79,162.02L341.3,161.26L342.22,158.24L344.89,156.58L345.91,151.16L348.21,149.91L347.78,147.08L348.81,145.6L346.81,144.31L348.7,140.47L344.23,136.92L345.22,134.51L362.82,135.28L366.13,143.89L366.15,152.45L354.63,155.42L350.02,154.12L345.91,159.87L346.52,160.81L342.67,160.97L341.7,162.96L338.88,164.04L335.79,162.02" style="vector-effect: non-scaling-stroke; fill: none; stroke: rgb(0, 0, 0); stroke-opacity: 1; stroke-width: 0px; opacity: 1;"/><path class="js-line" d="M343.73,210.39L346.77,210.26L349.36,206.72L359.34,207.62L358.6,209.03L360.27,209.6L361.99,212.75L369.54,216.24L381.77,227.1L381.79,233.69L379.37,234.27L378.81,236.21L375.91,234.5L377.76,237.67L377.36,239.11L370.05,234.41L366.16,236.52L365.65,233.87L358.44,226.42L355.8,226.51L356.4,225.5L354.41,220.51L350.09,218.98L350.33,216.57L344.53,212.36L343.73,210.39" style="vector-effect: non-scaling-stroke; fill: none; stroke: rgb(0, 0, 0); stroke-opacity: 1; stroke-width: 0px; opacity: 1;"/><path class="js-line" d="M483.32,330.62L484.59,328.64L485.95,328.73L489,317.7L488.24,295.73L489.52,295.74L489.48,255.57L561.61,255.06L598.48,288.34L598.44,293.65L604.4,300.31L605.64,305.08L607.66,307.79L607.44,310.75L615.07,315.22L616.73,318.79L605.67,326.33L573.67,326.4L573.67,328.21L515.04,328.21L515.04,329.41L492.2,328.23L492.19,330.09L490.3,330.78L490.28,332.7L488.67,332.7L488,334.93L483.32,330.62" style="vector-effect: non-scaling-stroke; fill: none; stroke: rgb(0, 0, 0); stroke-opacity: 1; stroke-width: 0px; opacity: 1;"/><path class="js-line" d="M345.88,163.03L346.64,160.65L345.91,159.87L349.96,154.14L354.63,155.42L366.15,152.45L369.8,161.63L370.02,175.6L367.4,174.68L363.13,175.45L349.98,186.17L346.9,183.66L346.89,172.4L347.72,171.01L346.09,170.65L346.91,167.98L346.06,164.5L346.87,164.12L345.88,163.03" style="vector-effect: non-scaling-stroke; fill: none; stroke: rgb(0, 0, 0); stroke-opacity: 1; stroke-width: 0px; opacity: 1;"/><path class="js-line" d="M354.55,255.66L396.42,255.9L396.42,263.11L400.35,263.1L400.32,266.72L403.57,269.11L403.56,270.31L407.83,270.32L407.82,273.95L410.4,273.96L410.39,277.56L415.58,277.6L415.57,281.21L419.69,281L419.42,284.8L422.63,285.25L422.63,292.49L420.33,292.63L400.49,283.69L398.26,284.48L395.84,287.57L391.7,287.7L392.5,292.31L387.47,288.9L380.43,290.08L379.81,282.33L376.79,281.06L375.84,281.84L370.88,278.2L372.12,274.13L371.32,270.69L367.01,269.43L361.07,262.24L356.72,261L354.55,255.66" style="vector-effect: non-scaling-stroke; fill: none; stroke: rgb(0, 0, 0); stroke-opacity: 1; stroke-width: 0px; opacity: 1;"/><path class="js-line" d="M319.25,198.32L325.24,197.15L325.26,194.24L329.85,199.15L339.7,204.02L341.01,205.71L340.29,206.43L346.01,210.18L340.77,209.55L337.68,212.17L333.34,206.92L326.94,207.84L322.66,204.96L319.25,198.32" style="vector-effect: non-scaling-stroke; fill: none; stroke: rgb(0, 0, 0); stroke-opacity: 1; stroke-width: 0px; opacity: 1;"/><path class="js-line" d="M291.96,69.73L294.52,65.2L298.04,64.07L302.91,59.56L305.61,58.73L303.46,54.02L306.88,49.98L306.6,48.4L308.99,45.34L308.94,42.41L311.62,40.64L311.18,38.24L314.18,37.25L314.59,34.67L312.68,33.71L355.08,33.66L355.22,64.08L336.18,64.2L319.56,67.14L311.73,66.18L307.13,68.91L303.7,67.37L299.08,68.06L297.39,69.8L292.4,70.67L291.96,69.73" style="vector-effect: non-scaling-stroke; fill: none; stroke: rgb(0, 0, 0); stroke-opacity: 1; stroke-width: 0px; opacity: 1;"/><path class="js-line" d="M365.04,101.38L366.25,100.6L366.79,97.28L369.31,95.34L369.52,93.19L371.82,91.62L374.67,94.39L376.22,93.98L378.76,95.75L379.7,94.53L403.42,93.87L403.36,105.29L385.1,105.25L383.09,102.36L379.66,101.93L375.99,104.99L366.33,107.5L365.04,101.38" style="vector-effect: non-scaling-stroke; fill: none; stroke: rgb(0, 0, 0); stroke-opacity: 1; stroke-width: 0px; opacity: 1;"/><path class="js-line" d="M268.35,16.6L270.47,11.82L268.89,7.06L271.12,4.58L274.13,3.9L275.64,0L350.87,0.15L350.91,33.67L312.68,33.71L312.12,29.69L313.4,28.05L310,26.07L309.33,27.81L307.46,27.78L307.07,29.3L301.65,32.87L295.86,33.76L295.51,37.52L297.24,38.27L298.04,40.63L293.11,41.06L290.48,38.12L285.75,38.11L283.73,35.44L280.6,35L277.91,31.47L276.67,25.67L270.42,25.49L272.23,22.2L270.91,19.19L269.24,18.5L269.67,16.74L268.35,16.6" style="vector-effect: non-scaling-stroke; fill: none; stroke: rgb(0, 0, 0); stroke-opacity: 1; stroke-width: 0px; opacity: 1;"/><path class="js-line" d="M316.13,158.42L323.69,158.44L323.31,151.82L328.56,151.34L326.2,147.15L327.5,143.57L330.31,144.69L332.96,142.85L341.26,142.66L341.92,151.9L345.57,151.93L344.8,156.73L342.22,158.24L341.3,161.26L338.12,162.35L328.57,162.26L325.09,163.47L321,162.34L316.13,158.42" style="vector-effect: non-scaling-stroke; fill: none; stroke: rgb(0, 0, 0); stroke-opacity: 1; stroke-width: 0px; opacity: 1;"/><path class="js-line" d="M349.44,186.43L363.13,175.45L367.4,174.68L370.02,175.6L369.8,161.63L389.38,179.91L367.72,189.56L368.42,191.79L358.89,200.47L356.92,198.46L352.43,199.59L350.47,194.34L352.39,193.21L352.27,190.34L350.54,189.73L349.44,186.43" style="vector-effect: non-scaling-stroke; fill: none; stroke: rgb(0, 0, 0); stroke-opacity: 1; stroke-width: 0px; opacity: 1;"/><path class="js-line" d="M332.71,113.59L334.13,111.11L344.23,111.03L346.1,126.85L347.39,124.76L352.07,123.79L352.07,126.67L350.08,126.68L349.53,134.56L345.22,134.51L345.6,133.4L344.45,132.48L342.68,134.22L340.59,129.43L337.52,128.71L338.39,127.56L336.59,125.5L338.23,123.79L333.05,118.15L333.8,117.56L332.71,113.59" style="vector-effect: non-scaling-stroke; fill: none; stroke: rgb(0, 0, 0); stroke-opacity: 1; stroke-width: 0px; opacity: 1;"/><path class="js-line" d="M292.08,70.61L303.55,67.38L307.13,68.91L311.73,66.18L324.51,66.81L327.2,65.34L342.21,63.76L349.05,64.07L349.97,67.94L354.7,69.67L353.44,70.15L354.44,71.17L353.86,73.5L351.06,74.48L350.67,77.4L345.82,78.29L343.66,83.15L341.58,83.08L338.93,87.01L329.16,87.22L328.27,89L329.11,90.77L296.62,90.7L296.24,86.3L297.73,85.05L294.84,76.46L295.36,72.85L292.08,70.61" style="vector-effect: non-scaling-stroke; fill: none; stroke: rgb(0, 0, 0); stroke-opacity: 1; stroke-width: 0px; opacity: 1;"/><path class="js-line" d="M271.84,44.05L274.1,43.28L276.96,44.74L278.18,43.55L279.66,39.97L277.59,37.34L278.48,37.42L279.62,33.82L283.73,35.44L285.75,38.11L290.48,38.12L293.11,41.06L297.45,41.48L298.19,40.03L295.51,37.52L295.86,33.76L301.65,32.87L307.07,29.3L307.46,27.78L309.33,27.81L310,26.07L313.4,28.05L311.8,32.44L314.59,34.67L314.37,36.77L311.18,38.24L311.62,40.64L308.94,42.41L308.99,45.34L306.6,48.4L306.88,49.98L303.46,54.02L305.61,58.73L302.91,59.56L298.04,64.07L294.52,65.2L292.07,68.26L292.23,70.99L295.27,72.49L294.84,76.46L296.85,83.33L274.67,83.38L274,47.81L271.84,44.05" style="vector-effect: non-scaling-stroke; fill: none; stroke: rgb(0, 0, 0); stroke-opacity: 1; stroke-width: 0px; opacity: 1;"/><path class="js-line" d="M419.22,226.85L422.86,223.52L428.72,223.58L428.74,220L440.36,220.15L440.45,216.66L463.38,216.69L463.98,218.15L462.84,218.77L466.17,222.61L465.53,224.03L467.46,225.65L467.06,227.34L468.52,229.49L471.13,230L470.22,231.17L472.5,232.96L471.51,235.67L473.99,240.21L473.7,243.37L476.75,250.24L475.85,255.9L420.25,255.89L420.57,236.1L422.56,236.13L422.55,230.7L420.59,230.68L420.65,227.08L419.22,226.85" style="vector-effect: non-scaling-stroke; fill: none; stroke: rgb(0, 0, 0); stroke-opacity: 1; stroke-width: 0px; opacity: 1;"/><path class="js-line" d="M379.73,171.71L384.81,166.62L384.03,165.2L386.62,164.4L397.07,149.42L402.75,146.96L407.66,150.15L414.22,147.71L414.37,149.78L416.58,151.36L416.14,153.02L417.83,154.97L416.82,156.63L419.98,158.93L421.74,158.36L423.1,160.86L424.16,160.03L427.24,161.4L428.74,163.84L428.43,166.76L432.15,168.97L432.68,171.25L432.38,173.34L430.03,175.57L426.16,171.38L422.57,170.77L420.34,168.77L416.24,171.21L415.56,173.01L410.43,174.92L405.71,174.59L400.58,171.88L398.85,173.82L397.14,173.09L394,175.8L390.93,176.13L392.21,179L389.23,177.86L389.38,179.91L379.73,171.71" style="vector-effect: non-scaling-stroke; fill: none; stroke: rgb(0, 0, 0); stroke-opacity: 1; stroke-width: 0px; opacity: 1;"/><path class="js-line" d="M423.77,329.03L426.82,328.96L423.77,329.03" style="vector-effect: non-scaling-stroke; fill: none; stroke: rgb(0, 0, 0); stroke-opacity: 1; stroke-width: 0px; opacity: 1;"/><path class="js-line" d="M422.44,313.98L423.8,311.41L423.73,292.48L425.92,292.5L425.91,293.37L429.74,293.37L430.95,296.07L444.12,297.04L453.16,319.71L451.88,319.71L451.87,322.68L447.48,322.68L441.96,326.52L441.81,327.74L431.94,323.59L429.68,318.62L422.44,313.98" style="vector-effect: non-scaling-stroke; fill: none; stroke: rgb(0, 0, 0); stroke-opacity: 1; stroke-width: 0px; opacity: 1;"/><path class="js-line" d="M418.83,359.33L420.59,359.05L424.02,361.46L419.96,361.23L418.83,359.33" style="vector-effect: non-scaling-stroke; fill: none; stroke: rgb(0, 0, 0); stroke-opacity: 1; stroke-width: 0px; opacity: 1;"/><path class="js-line" d="M344.01,113.35L344.92,110.47L349.06,110.68L353.58,108.61L356.04,102.22L361.34,102.22L362,100.46L366.79,97.28L366.25,100.6L365.02,101.5L366.33,107.5L362.48,107.98L359.14,111.97L357.46,112.39L356.97,122.2L355.81,121.49L347.39,124.76L346.22,126.99L344.96,121.28L345.79,119.44L344.01,113.35" style="vector-effect: non-scaling-stroke; fill: none; stroke: rgb(0, 0, 0); stroke-opacity: 1; stroke-width: 0px; opacity: 1;"/></g><g class="points"/><g class="text"/></g><g class="trace scatter tracea26b3b" style="stroke-miterlimit: 2; opacity: 1;"><g class="fills"><g><path class="js-fill" d="M314.58,170.55L315.36,170.15L315.59,170.89L314.58,170.55ZM293.71,164.84L296.31,158.48L294.35,152.64L297.8,151.61L303.91,156.3L310.06,157.11L311.93,159.07L313.13,160.66L312.7,164.02L314.54,165.47L312.79,166.04L313.37,167.19L312.51,167.76L314.87,169.73L314.15,170.52L312.59,169.2L313.62,171.75L311.63,172.45L307.47,169.05L304.44,168.83L299.67,164.14L296.65,163.51L295.12,164.45L295.78,165.24L293.71,164.84ZM358.1,204.63L359.57,203.5L358.22,202.33L358.89,200.47L368.42,191.79L367.54,189.69L389.38,179.93L397.02,195.25L401.58,198.48L386.15,202.05L381.72,206.08L382.01,207.97L379.63,207.96L370.09,216.72L361.99,212.75L360.27,209.6L358.6,209.03L359.44,207.79L358.1,204.63ZM487.91,334.19L488.67,332.7L490.28,332.7L490.3,330.78L492.19,330.09L492.2,328.23L515.04,329.41L515.04,328.21L573.67,328.21L573.67,326.4L605.67,326.33L605.57,328.68L602.04,332.3L603.04,333.57L602.31,337.23L603.54,341.64L602.18,343L602.43,348.06L598.71,352.95L503.72,353.01L499.25,350L493.96,350L497.46,343.65L493.08,341.54L492.99,339.6L491.4,339.17L487.91,334.19ZM437.89,351.62L438.68,350.64L437.89,351.62ZM406.02,327.15L412.21,327.19L416.63,329.07L418.58,327.4L420.89,328.2L419.44,329.8L410.07,331.27L408.07,330.42L407.96,328.29L406.02,327.15ZM394.4,329.51L401.9,328.14L401.78,329.61L404.19,330.29L404.61,331.96L399.26,333.96L394.4,329.51ZM387.12,328.2L390.09,326.46L392.31,328.69L390.46,328.99L387.12,328.2ZM379.09,292.36L379.87,289.46L385.44,288.7L392.5,292.31L391.7,287.7L395.84,287.57L398.26,284.48L400.49,283.69L420.33,292.63L423.73,292.48L423.6,312.97L422.42,314.23L417.77,312.29L407.9,312.85L403.18,310.64L398.34,310.11L386.34,311.16L384.89,308.07L379.88,305.85L381.65,300.58L380.31,298.47L381.29,294.26L379.09,292.36ZM275.09,133.17L281.08,132.81L281.07,131.59L289.51,131.49L289.49,130.24L291.51,129.71L301.87,130.26L305.52,135.45L307.65,136.24L307.84,141.37L313.35,146.34L312.72,147.34L317.72,155.33L317.49,158.2L312.63,160.23L310.06,157.11L303.91,156.3L297.8,151.61L292.34,152.53L289.78,146.27L282.4,141.53L275.09,133.17ZM315.48,127.65L316.12,126.7L337.89,127.15L337.52,128.71L340.66,129.51L342.63,134.19L344.31,132.49L345.5,133.17L344.17,136.78L348.74,140.67L346.81,144.31L348.81,145.6L347.78,147.08L348.18,149.99L345.57,151.93L341.92,151.9L341.26,142.66L332.96,142.85L330.31,144.69L327.04,143.68L320.33,130.22L317.29,130.03L315.48,127.65Z" style="fill: rgb(71, 45, 123); fill-opacity: 1; stroke-width: 0;"/></g></g><g class="errorbars"/><g class="lines"><path class="js-line" d="M314.58,170.55L315.36,170.15L315.59,170.89L314.58,170.55" style="vector-effect: non-scaling-stroke; fill: none; stroke: rgb(0, 0, 0); stroke-opacity: 1; stroke-width: 0px; opacity: 1;"/><path class="js-line" d="M293.71,164.84L296.31,158.48L294.35,152.64L297.8,151.61L303.91,156.3L310.06,157.11L311.93,159.07L313.13,160.66L312.7,164.02L314.54,165.47L312.79,166.04L313.37,167.19L312.51,167.76L314.87,169.73L314.15,170.52L312.59,169.2L313.62,171.75L311.63,172.45L307.47,169.05L304.44,168.83L299.67,164.14L296.65,163.51L295.12,164.45L295.78,165.24L293.71,164.84" style="vector-effect: non-scaling-stroke; fill: none; stroke: rgb(0, 0, 0); stroke-opacity: 1; stroke-width: 0px; opacity: 1;"/><path class="js-line" d="M358.1,204.63L359.57,203.5L358.22,202.33L358.89,200.47L368.42,191.79L367.54,189.69L389.38,179.93L397.02,195.25L401.58,198.48L386.15,202.05L381.72,206.08L382.01,207.97L379.63,207.96L370.09,216.72L361.99,212.75L360.27,209.6L358.6,209.03L359.44,207.79L358.1,204.63" style="vector-effect: non-scaling-stroke; fill: none; stroke: rgb(0, 0, 0); stroke-opacity: 1; stroke-width: 0px; opacity: 1;"/><path class="js-line" d="M487.91,334.19L488.67,332.7L490.28,332.7L490.3,330.78L492.19,330.09L492.2,328.23L515.04,329.41L515.04,328.21L573.67,328.21L573.67,326.4L605.67,326.33L605.57,328.68L602.04,332.3L603.04,333.57L602.31,337.23L603.54,341.64L602.18,343L602.43,348.06L598.71,352.95L503.72,353.01L499.25,350L493.96,350L497.46,343.65L493.08,341.54L492.99,339.6L491.4,339.17L487.91,334.19" style="vector-effect: non-scaling-stroke; fill: none; stroke: rgb(0, 0, 0); stroke-opacity: 1; stroke-width: 0px; opacity: 1;"/><path class="js-line" d="M437.89,351.62L438.68,350.64L437.89,351.62" style="vector-effect: non-scaling-stroke; fill: none; stroke: rgb(0, 0, 0); stroke-opacity: 1; stroke-width: 0px; opacity: 1;"/><path class="js-line" d="M406.02,327.15L412.21,327.19L416.63,329.07L418.58,327.4L420.89,328.2L419.44,329.8L410.07,331.27L408.07,330.42L407.96,328.29L406.02,327.15" style="vector-effect: non-scaling-stroke; fill: none; stroke: rgb(0, 0, 0); stroke-opacity: 1; stroke-width: 0px; opacity: 1;"/><path class="js-line" d="M394.4,329.51L401.9,328.14L401.78,329.61L404.19,330.29L404.61,331.96L399.26,333.96L394.4,329.51" style="vector-effect: non-scaling-stroke; fill: none; stroke: rgb(0, 0, 0); stroke-opacity: 1; stroke-width: 0px; opacity: 1;"/><path class="js-line" d="M387.12,328.2L390.09,326.46L392.31,328.69L390.46,328.99L387.12,328.2" style="vector-effect: non-scaling-stroke; fill: none; stroke: rgb(0, 0, 0); stroke-opacity: 1; stroke-width: 0px; opacity: 1;"/><path class="js-line" d="M379.09,292.36L379.87,289.46L385.44,288.7L392.5,292.31L391.7,287.7L395.84,287.57L398.26,284.48L400.49,283.69L420.33,292.63L423.73,292.48L423.6,312.97L422.42,314.23L417.77,312.29L407.9,312.85L403.18,310.64L398.34,310.11L386.34,311.16L384.89,308.07L379.88,305.85L381.65,300.58L380.31,298.47L381.29,294.26L379.09,292.36" style="vector-effect: non-scaling-stroke; fill: none; stroke: rgb(0, 0, 0); stroke-opacity: 1; stroke-width: 0px; opacity: 1;"/><path class="js-line" d="M275.09,133.17L281.08,132.81L281.07,131.59L289.51,131.49L289.49,130.24L291.51,129.71L301.87,130.26L305.52,135.45L307.65,136.24L307.84,141.37L313.35,146.34L312.72,147.34L317.72,155.33L317.49,158.2L312.63,160.23L310.06,157.11L303.91,156.3L297.8,151.61L292.34,152.53L289.78,146.27L282.4,141.53L275.09,133.17" style="vector-effect: non-scaling-stroke; fill: none; stroke: rgb(0, 0, 0); stroke-opacity: 1; stroke-width: 0px; opacity: 1;"/><path class="js-line" d="M315.48,127.65L316.12,126.7L337.89,127.15L337.52,128.71L340.66,129.51L342.63,134.19L344.31,132.49L345.5,133.17L344.17,136.78L348.74,140.67L346.81,144.31L348.81,145.6L347.78,147.08L348.18,149.99L345.57,151.93L341.92,151.9L341.26,142.66L332.96,142.85L330.31,144.69L327.04,143.68L320.33,130.22L317.29,130.03L315.48,127.65" style="vector-effect: non-scaling-stroke; fill: none; stroke: rgb(0, 0, 0); stroke-opacity: 1; stroke-width: 0px; opacity: 1;"/></g><g class="points"/><g class="text"/></g><g class="trace scatter trace208017" style="stroke-miterlimit: 2; opacity: 1;"><g class="fills"><g><path class="js-fill" d="M315.18,166.25L317.44,165.72L317.43,164.31L319.86,164.38L321,162.34L325.46,163.52L335.79,162.1L338.74,164.06L341.7,162.96L342.67,160.97L345.15,160.71L346.87,164.12L346.06,164.5L346.91,167.98L346.09,170.65L347.72,171.01L346.96,172.34L332.22,176.42L329.14,173.14L324.04,172.21L321.21,168.79L316.6,168.57L315.18,166.25Z" style="fill: rgb(59, 82, 139); fill-opacity: 1; stroke-width: 0;"/></g></g><g class="errorbars"/><g class="lines"><path class="js-line" d="M315.18,166.25L317.44,165.72L317.43,164.31L319.86,164.38L321,162.34L325.46,163.52L335.79,162.1L338.74,164.06L341.7,162.96L342.67,160.97L345.15,160.71L346.87,164.12L346.06,164.5L346.91,167.98L346.09,170.65L347.72,171.01L346.96,172.34L332.22,176.42L329.14,173.14L324.04,172.21L321.21,168.79L316.6,168.57L315.18,166.25" style="vector-effect: non-scaling-stroke; fill: none; stroke: rgb(0, 0, 0); stroke-opacity: 1; stroke-width: 0px; opacity: 1;"/></g><g class="points"/><g class="text"/></g><g class="trace scatter trace8816b4" style="stroke-miterlimit: 2; opacity: 1;"><g class="fills"><g><path class="js-fill" d="M471.99,340.11L474,335.95L477,333.62L477,331.83L484.02,331.82L492.99,339.6L493.08,341.54L497.46,343.65L493.94,348.81L494,351.46L491.46,352.11L490.82,354.86L471.99,340.11Z" style="fill: rgb(44, 114, 142); fill-opacity: 1; stroke-width: 0;"/></g></g><g class="errorbars"/><g class="lines"><path class="js-line" d="M471.99,340.11L474,335.95L477,333.62L477,331.83L484.02,331.82L492.99,339.6L493.08,341.54L497.46,343.65L493.94,348.81L494,351.46L491.46,352.11L490.82,354.86L471.99,340.11" style="vector-effect: non-scaling-stroke; fill: none; stroke: rgb(0, 0, 0); stroke-opacity: 1; stroke-width: 0px; opacity: 1;"/></g><g class="points"/><g class="text"/></g><g class="trace scatter traceaf9675" style="stroke-miterlimit: 2; opacity: 1;"><g class="fills"><g><path class="js-fill" d="M311.87,181.54L312.74,180.8L312.54,176.85L316.57,176.84L316.65,179.65L317.87,180.67L317.04,181.07L326.15,185.42L326.61,186.81L323.87,188.27L323.43,191.06L325.22,194.09L325.24,197.15L319.25,198.32L320.15,201.6L316.07,197.95L316.23,191.22L314.09,185.72L312.02,184.54L311.87,181.54Z" style="fill: rgb(33, 145, 140); fill-opacity: 1; stroke-width: 0;"/></g></g><g class="errorbars"/><g class="lines"><path class="js-line" d="M311.87,181.54L312.74,180.8L312.54,176.85L316.57,176.84L316.65,179.65L317.87,180.67L317.04,181.07L326.15,185.42L326.61,186.81L323.87,188.27L323.43,191.06L325.22,194.09L325.24,197.15L319.25,198.32L320.15,201.6L316.07,197.95L316.23,191.22L314.09,185.72L312.02,184.54L311.87,181.54" style="vector-effect: non-scaling-stroke; fill: none; stroke: rgb(0, 0, 0); stroke-opacity: 1; stroke-width: 0px; opacity: 1;"/></g><g class="points"/><g class="text"/></g><g class="trace scatter trace967d95" style="stroke-miterlimit: 2; opacity: 1;"><g class="fills"><g><path class="js-fill" d="M318.36,172.83L320.02,171.89L318.92,169.25L320.94,168.7L324.04,172.21L329.14,173.14L332.22,176.42L346.81,172.28L346.9,183.66L350.01,186.11L328.98,186.82L328.78,185.62L326.82,185.41L324.59,178.07L318.36,172.83ZM323.43,191.06L323.87,188.27L326.61,186.81L328.67,187.61L335.69,186.06L349.95,186.15L350.54,189.73L352.27,190.34L352.39,193.21L350.49,194.32L350.57,195.74L352.63,199.84L354.07,198.42L358.52,199.54L359.23,200.95L358.22,202.33L359.57,203.5L358.1,204.63L358.17,206.55L359.3,207.62L349.36,206.72L346.22,210.43L345.68,209.06L340.29,206.43L341.01,205.71L339.7,204.02L329.85,199.15L323.78,192.91L323.43,191.06Z" style="fill: rgb(40, 174, 128); fill-opacity: 1; stroke-width: 0;"/></g></g><g class="errorbars"/><g class="lines"><path class="js-line" d="M318.36,172.83L320.02,171.89L318.92,169.25L320.94,168.7L324.04,172.21L329.14,173.14L332.22,176.42L346.81,172.28L346.9,183.66L350.01,186.11L328.98,186.82L328.78,185.62L326.82,185.41L324.59,178.07L318.36,172.83" style="vector-effect: non-scaling-stroke; fill: none; stroke: rgb(0, 0, 0); stroke-opacity: 1; stroke-width: 0px; opacity: 1;"/><path class="js-line" d="M323.43,191.06L323.87,188.27L326.61,186.81L328.67,187.61L335.69,186.06L349.95,186.15L350.54,189.73L352.27,190.34L352.39,193.21L350.49,194.32L350.57,195.74L352.63,199.84L354.07,198.42L358.52,199.54L359.23,200.95L358.22,202.33L359.57,203.5L358.1,204.63L358.17,206.55L359.3,207.62L349.36,206.72L346.22,210.43L345.68,209.06L340.29,206.43L341.01,205.71L339.7,204.02L329.85,199.15L323.78,192.91L323.43,191.06" style="vector-effect: non-scaling-stroke; fill: none; stroke: rgb(0, 0, 0); stroke-opacity: 1; stroke-width: 0px; opacity: 1;"/></g><g class="points"/><g class="text"/></g><g class="trace scatter trace013a45" style="stroke-miterlimit: 2; opacity: 1;"><g class="fills"><g><path class="js-fill" d="M490.82,354.86L491.46,352.11L494,351.46L493.96,350L499.25,350L503.72,353.01L545.73,353.26L544.96,386.52L507.95,390L506.35,384.32L503.54,384.43L502.23,377.42L503.24,374.92L500.55,365.79L494.1,357.08L490.82,354.86Z" style="fill: rgb(94, 201, 98); fill-opacity: 1; stroke-width: 0;"/></g></g><g class="errorbars"/><g class="lines"><path class="js-line" d="M490.82,354.86L491.46,352.11L494,351.46L493.96,350L499.25,350L503.72,353.01L545.73,353.26L544.96,386.52L507.95,390L506.35,384.32L503.54,384.43L502.23,377.42L503.24,374.92L500.55,365.79L494.1,357.08L490.82,354.86" style="vector-effect: non-scaling-stroke; fill: none; stroke: rgb(0, 0, 0); stroke-opacity: 1; stroke-width: 0px; opacity: 1;"/></g><g class="points"/><g class="text"/></g><g class="trace scatter trace63e7e8" style="stroke-miterlimit: 2; opacity: 1;"><g class="fills"><g><path class="js-fill" d="M293.95,177.17L294.5,177.29L293.95,177.17ZM318.73,173.57L318.89,173.86L318.73,173.57ZM317.07,171.81L317.63,172.77L317.07,171.81ZM315.52,170.45ZM312.1,173.85L315.99,172.59L317.7,176.38L312.54,176.85L312.1,173.85Z" style="fill: rgb(173, 220, 48); fill-opacity: 1; stroke-width: 0;"/></g></g><g class="errorbars"/><g class="lines"><path class="js-line" d="M293.95,177.17L294.5,177.29L293.95,177.17" style="vector-effect: non-scaling-stroke; fill: none; stroke: rgb(0, 0, 0); stroke-opacity: 1; stroke-width: 0px; opacity: 1;"/><path class="js-line" d="M318.73,173.57L318.89,173.86L318.73,173.57" style="vector-effect: non-scaling-stroke; fill: none; stroke: rgb(0, 0, 0); stroke-opacity: 1; stroke-width: 0px; opacity: 1;"/><path class="js-line" d="M317.07,171.81L317.63,172.77L317.07,171.81" style="vector-effect: non-scaling-stroke; fill: none; stroke: rgb(0, 0, 0); stroke-opacity: 1; stroke-width: 0px; opacity: 1;"/><path class="js-line" d="M312.1,173.85L315.99,172.59L317.7,176.38L312.54,176.85L312.1,173.85" style="vector-effect: non-scaling-stroke; fill: none; stroke: rgb(0, 0, 0); stroke-opacity: 1; stroke-width: 0px; opacity: 1;"/></g><g class="points"/><g class="text"/></g><g class="trace scatter trace94c6d8" style="stroke-miterlimit: 2; opacity: 1;"><g class="fills"><g><path class="js-fill" d="M454.18,351.09L462.69,353.95L465.06,358.02L459.24,357.38L458.39,353.51L455.24,352.67L454.18,351.09ZM453.96,369.45L455.29,369.55L463.28,378.19L460.45,378.99L457.75,376.87L453.96,369.45ZM441.82,327.69L441.96,326.52L447.48,322.68L451.87,322.68L451.88,319.71L453.16,319.71L443.64,295.91L488.24,295.73L489,317.7L485.95,328.73L483.96,329.41L484.02,331.82L477,331.83L477,333.62L474,335.95L471.95,340.19L469.59,339.36L469.48,341.02L466.35,341.8L461.2,340.24L460.58,338.89L461.93,336.25L459.41,330.88L456.41,328.03L449.08,328.29L446.84,329.6L441.82,327.69Z" style="fill: rgb(253, 231, 37); fill-opacity: 1; stroke-width: 0;"/></g></g><g class="errorbars"/><g class="lines"><path class="js-line" d="M454.18,351.09L462.69,353.95L465.06,358.02L459.24,357.38L458.39,353.51L455.24,352.67L454.18,351.09" style="vector-effect: non-scaling-stroke; fill: none; stroke: rgb(0, 0, 0); stroke-opacity: 1; stroke-width: 0px; opacity: 1;"/><path class="js-line" d="M453.96,369.45L455.29,369.55L463.28,378.19L460.45,378.99L457.75,376.87L453.96,369.45" style="vector-effect: non-scaling-stroke; fill: none; stroke: rgb(0, 0, 0); stroke-opacity: 1; stroke-width: 0px; opacity: 1;"/><path class="js-line" d="M441.82,327.69L441.96,326.52L447.48,322.68L451.87,322.68L451.88,319.71L453.16,319.71L443.64,295.91L488.24,295.73L489,317.7L485.95,328.73L483.96,329.41L484.02,331.82L477,331.83L477,333.62L474,335.95L471.95,340.19L469.59,339.36L469.48,341.02L466.35,341.8L461.2,340.24L460.58,338.89L461.93,336.25L459.41,330.88L456.41,328.03L449.08,328.29L446.84,329.6L441.82,327.69" style="vector-effect: non-scaling-stroke; fill: none; stroke: rgb(0, 0, 0); stroke-opacity: 1; stroke-width: 0px; opacity: 1;"/></g><g class="points"/><g class="text"/></g><g class="trace scatter tracea83a49" style="stroke-miterlimit: 2; opacity: 1;"><g class="fills"/><g class="errorbars"/><g class="lines"><path class="js-line" d="M454.18,351.09L462.69,353.95L465.06,358.02L459.24,357.38L458.39,353.51L455.24,352.67L454.18,351.09" style="vector-effect: non-scaling-stroke; fill: none; stroke: rgb(240, 240, 240); stroke-opacity: 1; stroke-width: 1px; opacity: 1;"/><path class="js-line" d="M453.96,369.45L455.29,369.55L463.28,378.19L460.45,378.99L457.75,376.87L453.96,369.45" style="vector-effect: non-scaling-stroke; fill: none; stroke: rgb(240, 240, 240); stroke-opacity: 1; stroke-width: 1px; opacity: 1;"/><path class="js-line" d="M437.89,351.62L438.68,350.64L437.89,351.62" style="vector-effect: non-scaling-stroke; fill: none; stroke: rgb(240, 240, 240); stroke-opacity: 1; stroke-width: 1px; opacity: 1;"/><path class="js-line" d="M423.77,329.03L426.82,328.96L423.77,329.03" style="vector-effect: non-scaling-stroke; fill: none; stroke: rgb(240, 240, 240); stroke-opacity: 1; stroke-width: 1px; opacity: 1;"/><path class="js-line" d="M418.83,359.33L420.59,359.05L424.02,361.46L419.96,361.23L418.83,359.33" style="vector-effect: non-scaling-stroke; fill: none; stroke: rgb(240, 240, 240); stroke-opacity: 1; stroke-width: 1px; opacity: 1;"/><path class="js-line" d="M406.02,327.15L412.21,327.19L416.63,329.07L418.58,327.4L420.89,328.2L419.44,329.8L410.07,331.27L408.07,330.42L407.96,328.29L406.02,327.15" style="vector-effect: non-scaling-stroke; fill: none; stroke: rgb(240, 240, 240); stroke-opacity: 1; stroke-width: 1px; opacity: 1;"/><path class="js-line" d="M394.4,329.51L401.9,328.14L401.78,329.61L404.19,330.29L404.61,331.96L399.26,333.96L394.4,329.51" style="vector-effect: non-scaling-stroke; fill: none; stroke: rgb(240, 240, 240); stroke-opacity: 1; stroke-width: 1px; opacity: 1;"/><path class="js-line" d="M387.12,328.2L390.09,326.46L392.31,328.69L390.46,328.99L387.12,328.2" style="vector-effect: non-scaling-stroke; fill: none; stroke: rgb(240, 240, 240); stroke-opacity: 1; stroke-width: 1px; opacity: 1;"/><path class="js-line" d="M317.07,171.81L317.63,172.77L317.07,171.81" style="vector-effect: non-scaling-stroke; fill: none; stroke: rgb(240, 240, 240); stroke-opacity: 1; stroke-width: 1px; opacity: 1;"/><path class="js-line" d="M314.58,170.55L315.36,170.15L315.59,170.89L314.58,170.55" style="vector-effect: non-scaling-stroke; fill: none; stroke: rgb(240, 240, 240); stroke-opacity: 1; stroke-width: 1px; opacity: 1;"/><path class="js-line" d="M293.95,177.17L294.5,177.29L293.95,177.17" style="vector-effect: non-scaling-stroke; fill: none; stroke: rgb(240, 240, 240); stroke-opacity: 1; stroke-width: 1px; opacity: 1;"/><path class="js-line" d="M250.22,2.06L250.38,2.05L250.22,2.06" style="vector-effect: non-scaling-stroke; fill: none; stroke: rgb(240, 240, 240); stroke-opacity: 1; stroke-width: 1px; opacity: 1;"/><path class="js-line" d="M243.27,64.17L252.37,46.34L254.06,40.13L252.54,39.03L252.11,35.89L254.23,31.77L255.72,21.86L252.76,11.66L248.85,9.18L250.54,4.64L250.43,0.1L403.5,0.26L403.43,123.64L494.31,196.94L598.48,288.34L598.44,293.65L604.4,300.31L605.64,305.08L607.66,307.79L607.44,310.75L615.07,315.22L616.73,318.79L605.72,326.01L605.57,328.68L602.04,332.3L603.04,333.57L602.31,337.23L603.54,341.64L602.18,343L602.43,348.06L598.12,353.64L595.14,354.12L596.13,356.29L594.93,358.35L597.07,360.16L595.82,367.18L597.33,369.41L602.6,369.57L604.45,371.95L604.46,377.19L602.21,379.32L602.35,380.82L599.03,382L595.99,381.29L595.35,382.39L507.95,390L506.35,384.32L503.54,384.43L502.23,377.42L503.24,374.92L500.55,365.79L495.41,358.6L488.77,352.43L486.52,351.86L483.96,348.5L469.59,339.36L469.48,341.02L466.35,341.8L461.2,340.24L460.58,338.89L461.93,336.25L457.27,328.48L449.08,328.29L446.84,329.6L435.11,325.46L431.94,323.59L429.68,318.62L419.31,312.5L407.9,312.85L403.18,310.64L398.34,310.11L387.02,311.38L384.89,308.07L380.33,306.5L381.65,300.58L380.31,298.47L381.29,294.26L379.04,292.43L380.58,285.88L380.06,282.66L372.36,279.91L370.78,277.9L372.12,274.13L371.32,270.69L367.01,269.43L361.07,262.24L356.72,261L355.05,256.15L350.24,251.81L348.85,247.21L346.25,246.18L341.07,239.18L334.33,234.6L334.31,231L332.45,225.84L333.49,225.58L333.25,224.15L331.57,223.26L333.1,220.99L335.86,222.04L337.54,219.09L338.49,214.1L335.8,208.84L333.34,206.92L328.38,208.15L325.88,207.35L316.07,197.95L316.23,191.22L314.09,185.72L312.65,185.61L311.92,183.89L312.84,179.49L312.1,173.85L313.42,172.62L316.79,173.45L317.83,175.97L316.51,176.87L316.65,179.65L317.87,180.67L317.04,181.07L325.84,185.11L327.57,187.39L329.39,187.29L328.78,185.62L326.82,185.41L324.59,178.07L321.63,176.16L321.93,175.05L318.72,173.82L318.36,172.83L320.02,171.89L319.48,169.12L316.6,168.57L315.17,166.34L317.44,165.72L317.43,164.31L320.49,163.89L321.24,162.99L320.52,161.41L316.49,158.91L312.99,160.21L312.7,164.02L314.54,165.47L312.79,166.04L313.37,167.19L312.44,167.44L314.87,169.73L314.15,170.52L312.59,169.2L313.62,171.75L311.63,172.45L307.47,169.05L304.44,168.83L299.67,164.14L296.65,163.51L295.12,164.45L295.78,165.24L293.58,165.04L296.31,158.48L294.62,154.99L295.47,155.24L295.29,153.79L293.57,152.03L292.14,152.38L289.78,146.27L282.4,141.53L278.4,136L268,126.95L267.5,125.43L269.34,121.53L264.38,109.27L266.6,100.85L263.51,89.35L255.21,81.2L254.1,78.16L245.02,71.83L245.48,69.47L243.27,64.17" style="vector-effect: non-scaling-stroke; fill: none; stroke: rgb(240, 240, 240); stroke-opacity: 1; stroke-width: 1px; opacity: 1;"/></g><g class="points"/><g class="text"/></g></g></g><g class="overplot"/><path class="xlines-above crisp" d="M0,0" style="fill: none;"/><path class="ylines-above crisp" d="M0,0" style="fill: none;"/><g class="overlines-above"/><g class="xaxislayer-above"/><g class="yaxislayer-above"/><g class="overaxes-above"/></g></g><g class="polarlayer"/><g class="ternarylayer"/><g class="geolayer"/><g class="funnelarealayer"/><g class="pielayer"/><g class="treemaplayer"/><g class="sunburstlayer"/><g class="glimages"/><defs id="topdefs-50ec05"><g class="clips"/><clipPath id="legend50ec05"><rect width="73" height="181" x="0" y="0"/></clipPath></defs><g class="layer-above"><g class="imagelayer"/><g class="shapelayer"/></g><g class="infolayer"><g class="legend" pointer-events="all" transform="translate(807, 40)"><rect class="bg" shape-rendering="crispEdges" width="73" height="181" x="0" y="0" style="stroke: rgb(68, 68, 68); stroke-opacity: 1; fill: rgb(255, 255, 255); fill-opacity: 1; stroke-width: 0px;"/><g class="scrollbox" transform="translate(0, 0)" clip-path="url('#legend50ec05')"><g class="groups"><g class="traces" transform="translate(0, 14.5)" style="opacity: 1;"><text class="legendtext user-select-none" text-anchor="start" x="40" y="4.680000000000001" style="font-family: 'Open Sans', verdana, arial, sans-serif; font-size: 12px; fill: rgb(68, 68, 68); fill-opacity: 1; white-space: pre;">17.0</text><g class="layers" style="opacity: 1;"><g class="legendfill"><path class="js-fill" d="M5,-2h30v6h-30z" style="stroke-width: 0; fill: rgb(253, 231, 37); fill-opacity: 1;"/></g><g class="legendlines"><path class="js-line" d="M5,-2h30" style="fill: none; stroke: rgb(0, 0, 0); stroke-opacity: 1; stroke-width: 0px;"/></g><g class="legendsymbols"><g class="legendpoints"/></g></g><rect class="legendtoggle" pointer-events="all" x="0" y="-9.5" width="67.265625" height="19" style="cursor: pointer; fill: rgb(0, 0, 0); fill-opacity: 0;"/></g><g class="traces" transform="translate(0, 33.5)" style="opacity: 1;"><text class="legendtext user-select-none" text-anchor="start" x="40" y="4.680000000000001" style="font-family: 'Open Sans', verdana, arial, sans-serif; font-size: 12px; fill: rgb(68, 68, 68); fill-opacity: 1; white-space: pre;">10.0</text><g class="layers" style="opacity: 1;"><g class="legendfill"><path class="js-fill" d="M5,-2h30v6h-30z" style="stroke-width: 0; fill: rgb(173, 220, 48); fill-opacity: 1;"/></g><g class="legendlines"><path class="js-line" d="M5,-2h30" style="fill: none; stroke: rgb(0, 0, 0); stroke-opacity: 1; stroke-width: 0px;"/></g><g class="legendsymbols"><g class="legendpoints"/></g></g><rect class="legendtoggle" pointer-events="all" x="0" y="-9.5" width="67.265625" height="19" style="cursor: pointer; fill: rgb(0, 0, 0); fill-opacity: 0;"/></g><g class="traces" transform="translate(0, 52.5)" style="opacity: 1;"><text class="legendtext user-select-none" text-anchor="start" x="40" y="4.680000000000001" style="font-family: 'Open Sans', verdana, arial, sans-serif; font-size: 12px; fill: rgb(68, 68, 68); fill-opacity: 1; white-space: pre;">8.0</text><g class="layers" style="opacity: 1;"><g class="legendfill"><path class="js-fill" d="M5,-2h30v6h-30z" style="stroke-width: 0; fill: rgb(94, 201, 98); fill-opacity: 1;"/></g><g class="legendlines"><path class="js-line" d="M5,-2h30" style="fill: none; stroke: rgb(0, 0, 0); stroke-opacity: 1; stroke-width: 0px;"/></g><g class="legendsymbols"><g class="legendpoints"/></g></g><rect class="legendtoggle" pointer-events="all" x="0" y="-9.5" width="67.265625" height="19" style="cursor: pointer; fill: rgb(0, 0, 0); fill-opacity: 0;"/></g><g class="traces" transform="translate(0, 71.5)" style="opacity: 1;"><text class="legendtext user-select-none" text-anchor="start" x="40" y="4.680000000000001" style="font-family: 'Open Sans', verdana, arial, sans-serif; font-size: 12px; fill: rgb(68, 68, 68); fill-opacity: 1; white-space: pre;">7.0</text><g class="layers" style="opacity: 1;"><g class="legendfill"><path class="js-fill" d="M5,-2h30v6h-30z" style="stroke-width: 0; fill: rgb(40, 174, 128); fill-opacity: 1;"/></g><g class="legendlines"><path class="js-line" d="M5,-2h30" style="fill: none; stroke: rgb(0, 0, 0); stroke-opacity: 1; stroke-width: 0px;"/></g><g class="legendsymbols"><g class="legendpoints"/></g></g><rect class="legendtoggle" pointer-events="all" x="0" y="-9.5" width="67.265625" height="19" style="cursor: pointer; fill: rgb(0, 0, 0); fill-opacity: 0;"/></g><g class="traces" transform="translate(0, 90.5)" style="opacity: 1;"><text class="legendtext user-select-none" text-anchor="start" x="40" y="4.680000000000001" style="font-family: 'Open Sans', verdana, arial, sans-serif; font-size: 12px; fill: rgb(68, 68, 68); fill-opacity: 1; white-space: pre;">5.0</text><g class="layers" style="opacity: 1;"><g class="legendfill"><path class="js-fill" d="M5,-2h30v6h-30z" style="stroke-width: 0; fill: rgb(33, 145, 140); fill-opacity: 1;"/></g><g class="legendlines"><path class="js-line" d="M5,-2h30" style="fill: none; stroke: rgb(0, 0, 0); stroke-opacity: 1; stroke-width: 0px;"/></g><g class="legendsymbols"><g class="legendpoints"/></g></g><rect class="legendtoggle" pointer-events="all" x="0" y="-9.5" width="67.265625" height="19" style="cursor: pointer; fill: rgb(0, 0, 0); fill-opacity: 0;"/></g><g class="traces" transform="translate(0, 109.5)" style="opacity: 1;"><text class="legendtext user-select-none" text-anchor="start" x="40" y="4.680000000000001" style="font-family: 'Open Sans', verdana, arial, sans-serif; font-size: 12px; fill: rgb(68, 68, 68); fill-opacity: 1; white-space: pre;">3.0</text><g class="layers" style="opacity: 1;"><g class="legendfill"><path class="js-fill" d="M5,-2h30v6h-30z" style="stroke-width: 0; fill: rgb(44, 114, 142); fill-opacity: 1;"/></g><g class="legendlines"><path class="js-line" d="M5,-2h30" style="fill: none; stroke: rgb(0, 0, 0); stroke-opacity: 1; stroke-width: 0px;"/></g><g class="legendsymbols"><g class="legendpoints"/></g></g><rect class="legendtoggle" pointer-events="all" x="0" y="-9.5" width="67.265625" height="19" style="cursor: pointer; fill: rgb(0, 0, 0); fill-opacity: 0;"/></g><g class="traces" transform="translate(0, 128.5)" style="opacity: 1;"><text class="legendtext user-select-none" text-anchor="start" x="40" y="4.680000000000001" style="font-family: 'Open Sans', verdana, arial, sans-serif; font-size: 12px; fill: rgb(68, 68, 68); fill-opacity: 1; white-space: pre;">2.0</text><g class="layers" style="opacity: 1;"><g class="legendfill"><path class="js-fill" d="M5,-2h30v6h-30z" style="stroke-width: 0; fill: rgb(59, 82, 139); fill-opacity: 1;"/></g><g class="legendlines"><path class="js-line" d="M5,-2h30" style="fill: none; stroke: rgb(0, 0, 0); stroke-opacity: 1; stroke-width: 0px;"/></g><g class="legendsymbols"><g class="legendpoints"/></g></g><rect class="legendtoggle" pointer-events="all" x="0" y="-9.5" width="67.265625" height="19" style="cursor: pointer; fill: rgb(0, 0, 0); fill-opacity: 0;"/></g><g class="traces" transform="translate(0, 147.5)" style="opacity: 1;"><text class="legendtext user-select-none" text-anchor="start" x="40" y="4.680000000000001" style="font-family: 'Open Sans', verdana, arial, sans-serif; font-size: 12px; fill: rgb(68, 68, 68); fill-opacity: 1; white-space: pre;">1.0</text><g class="layers" style="opacity: 1;"><g class="legendfill"><path class="js-fill" d="M5,-2h30v6h-30z" style="stroke-width: 0; fill: rgb(71, 45, 123); fill-opacity: 1;"/></g><g class="legendlines"><path class="js-line" d="M5,-2h30" style="fill: none; stroke: rgb(0, 0, 0); stroke-opacity: 1; stroke-width: 0px;"/></g><g class="legendsymbols"><g class="legendpoints"/></g></g><rect class="legendtoggle" pointer-events="all" x="0" y="-9.5" width="67.265625" height="19" style="cursor: pointer; fill: rgb(0, 0, 0); fill-opacity: 0;"/></g><g class="traces" transform="translate(0, 166.5)" style="opacity: 1;"><text class="legendtext user-select-none" text-anchor="start" x="40" y="4.680000000000001" style="font-family: 'Open Sans', verdana, arial, sans-serif; font-size: 12px; fill: rgb(68, 68, 68); fill-opacity: 1; white-space: pre;">0.0</text><g class="layers" style="opacity: 1;"><g class="legendfill"><path class="js-fill" d="M5,-2h30v6h-30z" style="stroke-width: 0; fill: rgb(68, 1, 84); fill-opacity: 1;"/></g><g class="legendlines"><path class="js-line" d="M5,-2h30" style="fill: none; stroke: rgb(0, 0, 0); stroke-opacity: 1; stroke-width: 0px;"/></g><g class="legendsymbols"><g class="legendpoints"/></g></g><rect class="legendtoggle" pointer-events="all" x="0" y="-9.5" width="67.265625" height="19" style="cursor: pointer; fill: rgb(0, 0, 0); fill-opacity: 0;"/></g></g></g><rect class="scrollbar" rx="20" ry="3" width="0" height="0" x="0" y="0" style="fill: rgb(128, 139, 164); fill-opacity: 1;"/></g><g class="g-gtitle"><text class="gtitle" x="450" y="20" text-anchor="middle" dy="0em" style="font-family: 'Open Sans', verdana, arial, sans-serif; font-size: 17px; fill: rgb(68, 68, 68); opacity: 1; font-weight: normal; white-space: pre;">Zika Virus Infection</text></g><g class="g-xtitle"/><g class="g-ytitle"/><g class="annotation" data-index="0" style="opacity: 1;"><g class="annotation-text-g" transform="rotate(0,878,22.499999999999982)"><g class="cursor-pointer" transform="translate(876, 20)"><rect class="bg" x="0.5" y="0.5" width="3" height="3" style="stroke-width: 1px; stroke: rgb(0, 0, 0); stroke-opacity: 0; fill: rgb(0, 0, 0); fill-opacity: 0;"/><text class="annotation-text" text-anchor="middle" x="2" y="2" style="font-family: 'Open Sans', verdana, arial, sans-serif; font-size: 12px; fill: rgb(68, 68, 68); fill-opacity: 1; white-space: pre;"><tspan style="font-weight:bold"></tspan></text></g></g></g></g></svg>